<svg xmlns="http://www.w3.org/2000/svg" version="1.1" xmlns:xlink="http://www.w3.org/1999/xlink" width="512" height="512" x="0" y="0" viewBox="0 0 64 64" style="enable-background:new 0 0 512 512" xml:space="preserve" class=""><g><path d="M32 26.473a2.956 2.956 0 0 0-2.854 2.073L28.1 31.781h-3.4a3 3 0 0 0-1.763 5.427l2.752 2-1.051 3.236a3 3 0 0 0 4.61 3.356l2.752-2 2.752 2a2.955 2.955 0 0 0 3.527 0 2.956 2.956 0 0 0 1.09-3.354l-1.051-3.236 2.752-2a3 3 0 0 0-1.763-5.427h-3.4l-1.051-3.235A2.957 2.957 0 0 0 32 26.473zm3.178 7.308h4.129a1 1 0 0 1 .588 1.81l-3.341 2.427a1 1 0 0 0-.363 1.117l1.276 3.927a1 1 0 0 1-1.539 1.119l-3.34-2.428a1 1 0 0 0-1.176 0l-3.34 2.428a1 1 0 0 1-1.539-1.119l1.276-3.927a1 1 0 0 0-.363-1.117l-3.341-2.427a1 1 0 0 1 .588-1.81h4.129a1 1 0 0 0 .951-.691l1.276-3.926a1 1 0 0 1 1.9 0l1.276 3.926a1 1 0 0 0 .953.691zM49 10h-3V9a3 3 0 0 0-6 0v1H27a1 1 0 0 0 0 2h13v3a3 3 0 0 0 6 0v-3h3a7.008 7.008 0 0 1 7 7v1H11a1 1 0 0 0 0 2h45v23a7.008 7.008 0 0 1-7 7H15a7.008 7.008 0 0 1-7-7V19a7.008 7.008 0 0 1 7-7h3v3a3 3 0 0 0 6 0V9a3 3 0 0 0-6 0v1h-3a9.01 9.01 0 0 0-9 9v26a9.01 9.01 0 0 0 9 9h34a9.01 9.01 0 0 0 9-9V19a9.01 9.01 0 0 0-9-9zm-5 5a1 1 0 0 1-2 0V9a1 1 0 0 1 2 0zM20 9a1 1 0 0 1 2 0v6a1 1 0 0 1-2 0z" fill="#807474" opacity="1" data-original="#000000" class=""></path></g></svg>