<svg xmlns="http://www.w3.org/2000/svg" version="1.1" xmlns:xlink="http://www.w3.org/1999/xlink" width="512" height="512" x="0" y="0" viewBox="0 0 64 64" style="enable-background:new 0 0 512 512" xml:space="preserve"><g><path d="M34.16 30.027a1.006 1.006 0 0 0 1.45 1.053l2.155-1.132 2.153 1.132a1.007 1.007 0 0 0 1.451-1.053l-.41-2.399L42.7 25.93a1.007 1.007 0 0 0-.554-1.704l-2.408-.351-1.077-2.182a1 1 0 0 0-1.793 0l-1.078 2.182-2.408.35a1 1 0 0 0-.555 1.705l1.743 1.7Zm2.438-4.25c.658-.038.912-.907 1.167-1.384l.413.837c.24.613 1.144.587 1.676.682-.378.39-1.119.898-.955 1.536l.157.92-.825-.434c-.556-.357-1.27.2-1.758.435l.158-.921c.166-.637-.58-1.147-.955-1.536ZM30.625 24.225l-2.407-.351-1.078-2.182a1.04 1.04 0 0 0-1.793 0l-1.077 2.182-2.408.35a1 1 0 0 0-.555 1.705l1.743 1.7-.41 2.398a1.007 1.007 0 0 0 1.45 1.053l2.153-1.132 2.155 1.132a1.006 1.006 0 0 0 1.45-1.053l-.41-2.399 1.742-1.699a1.007 1.007 0 0 0-.555-1.704Zm-2.96 2.338c-.508.418-.204 1.27-.13 1.806-.305-.14-.946-.578-1.292-.55-.342-.03-.99.413-1.29.549.075-.538.376-1.385-.13-1.805l-.668-.651.922-.135c.658-.038.911-.907 1.166-1.384.256.48.51 1.343 1.167 1.384l.923.135ZM35.915 19.359a1.007 1.007 0 0 0 .985-1.169l-.669-3.897 2.832-2.76a1.007 1.007 0 0 0-.555-1.704l-3.911-.569-1.75-3.544a1.04 1.04 0 0 0-1.793 0l-1.75 3.544-3.911.569a1.006 1.006 0 0 0-.555 1.705l2.83 2.76-.667 3.896a1 1 0 0 0 1.45 1.054l3.5-1.839c.25.085 3.766 2.105 3.964 1.954Zm-3.5-3.968a.991.991 0 0 0-.93 0l-2.17 1.14.413-2.418a1 1 0 0 0-.287-.884l-1.757-1.713 2.428-.352a.998.998 0 0 0 .753-.547l1.086-2.2 1.085 2.2a.998.998 0 0 0 .753.547l2.427.352-1.757 1.713a1 1 0 0 0-.287.884l.415 2.418ZM38.459 14.571a1 1 0 0 0 .252 1.025l2.225 2.167-.526 3.062a1 1 0 0 0 1.45 1.053l2.75-1.444 2.75 1.444a1 1 0 0 0 1.45-1.053l-.525-3.062 2.224-2.167a1 1 0 0 0-.555-1.705l-3.073-.447-1.374-2.785a1.04 1.04 0 0 0-1.793 0l-1.375 2.785-3.073.447a1 1 0 0 0-.807.68Zm4.688.776c.785-.067 1.041-1.275 1.463-1.986.423.712.678 1.918 1.464 1.986l1.589.231-1.15 1.121c-.598.516-.09 1.662-.016 2.467a7.957 7.957 0 0 0-1.887-.862 8.123 8.123 0 0 0-1.886.862c.073-.808.581-1.95-.016-2.467l-1.15-1.12Z" fill="#807474" opacity="1" data-original="#000000"></path><path d="m15.724 17.763-.525 3.062a1 1 0 0 0 1.45 1.053l2.75-1.444 2.749 1.444a1.006 1.006 0 0 0 1.45-1.053l-.525-3.062 2.224-2.167a1 1 0 0 0-.555-1.705l-3.073-.447-1.374-2.785a1.04 1.04 0 0 0-1.793 0l-1.375 2.785-3.073.447a1 1 0 0 0-.554 1.705Zm2.21-2.416c.786-.067 1.042-1.275 1.464-1.986.423.712.678 1.918 1.464 1.986l1.589.231L21.3 16.7c-.597.516-.09 1.662-.016 2.467a7.958 7.958 0 0 0-1.887-.862 8.123 8.123 0 0 0-1.886.862c.073-.808.581-1.95-.016-2.467l-1.15-1.12ZM28.57 47.429c-.301-2.734-.029-6.582-2.227-8.646a30.176 30.176 0 0 0-7.826-6.322 4.742 4.742 0 0 0-4.799-.385c-1.56.68-2.433 2.622-.963 3.88l5.78 4.766a1 1 0 0 0 1.271-1.543l-5.78-4.766.002-.114a2.663 2.663 0 0 1 3.512-.093 27.652 27.652 0 0 1 6.718 5.269 5.682 5.682 0 0 1 1.947 3.642l.351 4.223-8.519.317a6.997 6.997 0 0 0-2.782-3.773l-3.072-2.07a5.041 5.041 0 0 1-2.032-2.816L6.015 24.032c-.065-.424.534-.33.783-.365a2.997 2.997 0 0 1 2.695 1.717l2.07 4.389a1 1 0 0 0 1.809-.854l-2.07-4.389a5.005 5.005 0 0 0-4.504-2.863 2.4 2.4 0 0 0-2.713 2.887l4.14 14.983a7.038 7.038 0 0 0 2.844 3.936c1.493 1.094 4.377 2.49 4.938 4.408a2.968 2.968 0 0 0-1.995 2.966l.275 5.12a2.991 2.991 0 0 0 2.986 2.83h10.46a2.994 2.994 0 0 0 2.99-2.99v-5.52a2.971 2.971 0 0 0-2.154-2.858Zm.152 8.378a.991.991 0 0 1-.99.99h-10.46a.99.99 0 0 1-.988-.937l-.274-5.12a.994.994 0 0 1 .951-1.042l10.734-.4a.992.992 0 0 1 .725.276.982.982 0 0 1 .302.713ZM59.656 22.775c-1.834-2.394-5.93-.67-6.949 1.755l-2.07 4.39a1 1 0 0 0 1.808.853l2.07-4.39a2.996 2.996 0 0 1 2.695-1.716c.256.022.828-.045.786.353L53.86 38.992a5.05 5.05 0 0 1-2.037 2.823l-3.069 2.07a6.997 6.997 0 0 0-2.781 3.772l-8.52-.317.352-4.224a5.665 5.665 0 0 1 1.943-3.636 28.037 28.037 0 0 1 7.294-5.594 2.487 2.487 0 0 1 2.94.413l.002.114-5.78 4.766a1 1 0 0 0 1.27 1.543l5.788-4.771c2.77-3.024-2.71-5.502-5.202-3.808a30.063 30.063 0 0 0-7.777 5.974 7.526 7.526 0 0 0-2.47 4.834l-.373 4.479a2.97 2.97 0 0 0-2.153 2.857v5.52a2.994 2.994 0 0 0 2.99 2.99h10.46a2.991 2.991 0 0 0 2.986-2.83l.274-5.12a2.968 2.968 0 0 0-1.994-2.966c.554-1.912 3.449-3.316 4.934-4.406a7.046 7.046 0 0 0 2.849-3.944l4.142-14.99a2.26 2.26 0 0 0-.27-1.766ZM47.724 55.86a.99.99 0 0 1-.988.937h-10.46a.991.991 0 0 1-.99-.99v-5.52a.995.995 0 0 1 1.027-.99l10.734.401a.99.99 0 0 1 .951 1.042Z" fill="#807474" opacity="1" data-original="#000000"></path></g></svg>