<svg xmlns="http://www.w3.org/2000/svg" version="1.1" xmlns:xlink="http://www.w3.org/1999/xlink" width="512" height="512" x="0" y="0" viewBox="0 0 510.208 510.208" style="enable-background:new 0 0 512 512" xml:space="preserve" class=""><g><path d="M407.06 238.887a19.095 19.095 0 0 0 2.063-17.688c-6.66-17.236-23.549-28.816-42.025-28.816H341.01v-23.355c8.766-3.099 15.065-11.464 15.065-21.278v-11.03c0-6.36-5.175-11.535-11.535-11.535h-22.06c-6.36 0-11.534 5.175-11.534 11.535v11.03c0 9.814 6.299 18.179 15.064 21.278v23.355h-47.454V138.39c.906-10.542-8.918-21.182-16.56-28.187V82.236c0-4.143-3.357-7.5-7.5-7.5a7.5 7.5 0 0 0-7.5 7.5v27.967c-7.628 7.318-16.836 16.047-16.56 28.187v53.993h-47.454v-23.355c8.766-3.099 15.065-11.464 15.065-21.278v-11.03c0-6.36-5.174-11.535-11.535-11.535h-22.06c-6.36 0-11.535 5.175-11.535 11.535v11.03c0 9.814 6.299 18.179 15.065 21.278v23.355h-25.681c-18.477 0-35.366 11.58-42.025 28.816-4.739 11.164 4.284 26.155 17.819 25.987h96.083v17.186c0 12.16 9.893 22.053 22.053 22.053H247.2v100.476l-35.17 28.305c-7.967 5.339-4.636 20.191 6.581 20.264l72.19-.039c9.802.243 15.483-13.473 6.555-20.274l-35.156-28.16V286.425h10.969c12.16 0 22.053-9.893 22.053-22.053v-24.686c0-4.143-3.357-7.5-7.5-7.5H118.096c-1.835-.408-4.349-.621-3.827-5.581 4.442-11.498 15.708-19.223 28.033-19.223h224.796c12.325 0 23.591 7.725 28.033 19.223.28 1.859.989 4.28-3.827 5.581H323.5c-4.143 0-7.5 3.357-7.5 7.5s3.357 7.5 7.5 7.5h67.805a19.097 19.097 0 0 0 15.755-8.299zm-81.114-98.703h15.13v7.565c0 4.171-3.394 7.564-7.565 7.564s-7.564-3.394-7.564-7.564v-7.565zm-158.029 0h15.13v7.565c0 4.171-3.394 7.564-7.565 7.564s-7.565-3.394-7.565-7.564zm61.504 280.28 25.224-20.3 25.309 20.272zm50.8-173.278v17.186a7.061 7.061 0 0 1-7.053 7.053h-36.937a7.061 7.061 0 0 1-7.053-7.053v-17.186zm-34.784-54.803V138.39c5.716-21.386 15.461-13.216 18.12 0v53.993z" fill="#787276" opacity="1" data-original="#000000" class=""></path><path d="M121.144 339.696a26.557 26.557 0 0 0-1.154-2.618c14.701 1.971 28.87-7.704 29.016-23.058 0-12.715-10.344-23.059-23.058-23.059H46.116v-79.424c0-4.143-3.358-7.5-7.5-7.5s-7.5 3.357-7.5 7.5v80.443c0 7.709 6.272 13.98 13.981 13.98h80.85c4.443 0 8.058 3.615 8.058 8.059s-3.615 8.058-8.058 8.058h-80.85C28.501 322.078 15 308.577 15 291.981V160.816c0-4.443 3.615-8.059 8.058-8.059s8.058 3.615 8.058 8.059v15.406c0 4.143 3.358 7.5 7.5 7.5s7.5-3.357 7.5-7.5v-15.406c0-12.715-10.344-23.059-23.058-23.059S0 148.101 0 160.816v131.165c0 23.554 18.156 42.937 41.206 44.918a27.107 27.107 0 0 0-1.545 3.699L11.53 425.613a7.5 7.5 0 0 0 14.24 4.713l28.132-85.016a11.982 11.982 0 0 1 11.396-8.232h30.527c4.996 0 9.519 3.147 11.255 7.831l31.754 85.667c1.709 2.689 4.198 6.119 9.639 4.426a7.499 7.499 0 0 0 4.425-9.639zM510.2 291.981V160.816c0-12.715-10.344-23.059-23.058-23.059-12.715 0-23.059 10.344-23.059 23.059v130.145h-79.831c-12.714 0-23.058 10.344-23.058 23.059-.173 15.197 14.487 24.978 29.015 23.058-.423.849-.82 1.716-1.154 2.618l-31.754 85.667a7.5 7.5 0 0 0 4.426 9.639c2.865.978 7.436.263 9.639-4.426l31.754-85.666c1.737-4.685 6.261-7.832 11.256-7.832h30.527c5.187 0 9.767 3.309 11.396 8.233l28.132 85.015a7.5 7.5 0 0 0 14.241-4.713l-28.132-85.014a27.077 27.077 0 0 0-1.544-3.697c21.794-1.388 41.68-21.772 41.204-44.921zm-15 0c.319 15.173-13.36 30.39-30.097 30.097h-80.851c-9.948-.271-10.751-15.277 0-16.116h80.851c7.709 0 13.98-6.271 13.98-13.98V160.816c0-4.443 3.615-8.059 8.059-8.059s8.058 3.615 8.058 8.059z" fill="#787276" opacity="1" data-original="#000000" class=""></path></g></svg>