<svg xmlns="http://www.w3.org/2000/svg" version="1.1" xmlns:xlink="http://www.w3.org/1999/xlink" width="512" height="512" x="0" y="0" viewBox="0 0 64 64" style="enable-background:new 0 0 512 512" xml:space="preserve" class=""><g><path d="M8 47c.8 0 1.1.2 1.6.7l.1.1c.4.4 1.4 1.2 3 1.2h.1c1.6 0 2.6-.9 3-1.2l.1-.1c.5-.4.8-.6 1.6-.7.8 0 1.1.2 1.6.7l.1.1c.4.4 1.4 1.2 3 1.2h.1c1.6 0 2.5-.9 3-1.2l.1-.1c.5-.4.8-.6 1.6-.7h.5c.5.1 1.1-.3 1.2-.8s-.3-1.1-.8-1.2c-.3 0-.6-.1-.9-.1-1.6 0-2.6.9-3 1.2v.2c-.5.4-.8.7-1.6.7s-1.1-.2-1.6-.7l-.1-.1c-.7-.5-1.7-1.2-3-1.2h-.1c-1.5 0-2.5.9-3 1.2l-.1.1c-.5.4-.8.6-1.6.7-.8 0-1.1-.2-1.6-.7l-.3-.1c-.4-.4-1.4-1.2-3-1.2-.5 0-1 .4-1 1 0 .5.5 1 1 1zM31.3 48.9c.5 0 .9-.3 1-.8s-.2-1.1-.8-1.2c-.5-.1-1.1.3-1.2.8 0 .3 0 .5.1.8.2.2.4.4.6.4zM35.5 47.4c.4-.3.6-.4 1.3-.4.8 0 1.1.2 1.6.7l.1.1c.4.4 1.4 1.2 3 1.2h.2c1.4 0 2.3-.7 3-1.2l.1-.1c.5-.4.8-.6 1.6-.7.8 0 1.1.2 1.6.7l.1.1c.4.4 1.4 1.2 3 1.2h.2c1.2 0 2-.5 2.5-.8.2-.1.4-.3.5-.4.3-.2.5-.4.8-.6.5-.2.7-.8.4-1.3-.2-.5-.8-.7-1.3-.5-.5.3-.9.6-1.2.8-.1.1-.3.2-.4.3-.4.3-.7.4-1.3.4-.8 0-1.1-.2-1.6-.7l-.1-.1c-.7-.6-1.6-1.2-3-1.2h-.1c-1.6-.1-2.6.9-3 1.2l-.1.1c-.5.4-.8.6-1.6.7-.8 0-1.1-.2-1.6-.7l-.1-.1c-.4-.4-1.4-1.2-3-1.2H37c-1.2 0-2 .4-2.5.8-.4.3-.5 1-.2 1.4.1.5.7.6 1.2.3zM56 51c-1.6 0-2.4.7-3 1.2s-1 .8-1.8.8-1.2-.3-1.8-.8c-.7-.5-1.5-1.2-3-1.2-1.6 0-2.4.7-3 1.2s-.9.8-1.8.8c-.8 0-1.2-.3-1.8-.8-.7-.5-1.5-1.2-3-1.2s-2.4.7-3 1.2-1 .8-1.8.8-1.2-.3-1.8-.8c-.7-.5-1.5-1.2-3-1.2-1.6 0-2.4.7-3 1.2s-.9.8-1.8.8-1.2-.3-1.8-.8c-.7-.5-1.5-1.2-3-1.2s-2.4.7-3 1.2-1 .8-1.8.8-1.2-.3-1.8-.8S9.6 51 8 51c-.6 0-1 .4-1 1s.4 1 1 1c.8 0 1.2.3 1.8.8.7.5 1.5 1.2 3 1.2s2.4-.7 3-1.2.9-.8 1.8-.8c.8 0 1.2.3 1.8.8.7.5 1.5 1.2 3 1.2s2.4-.7 3-1.2.9-.8 1.8-.8 1.2.3 1.8.8c.7.5 1.5 1.2 3 1.2s2.4-.7 3-1.2.9-.8 1.8-.8 1.2.3 1.8.8c.7.5 1.5 1.2 3 1.2 1.6 0 2.4-.7 3-1.2s.9-.8 1.8-.8c.8 0 1.2.3 1.8.8.7.5 1.5 1.2 3 1.2 1.6 0 2.4-.7 3-1.2s.9-.8 1.8-.8c.6 0 1-.4 1-1s-.4-1-1-1z" fill="#807474" opacity="1" data-original="#000000" class=""></path><circle cx="32" cy="11" r="1" fill="#807474" opacity="1" data-original="#000000" class=""></circle><path d="m50.7 37.7 6-6c.4-.4.4-1 0-1.4l-3-3c-.4-.4-1-.4-1.4 0l-.3.3V22c0-.6-.4-1-1-1h-5v-5h3c.3 0 .5-.1.7-.3s.3-.4.3-.7v-4c0-.3-.1-.5-.3-.7s-.4-.3-.7-.3H36c-.5 0-1 .4-1 1 0 .5.5 1 1 1h12v2H16v-2h12c.5 0 1-.5 1-1 0-.6-.5-1-1-1H15c-.3 0-.5.1-.7.3s-.3.4-.3.7v4c0 .3.1.5.3.7s.4.3.7.3h3v5h-5c-.6 0-1 .4-1 1v19H8c-.6 0-1 .4-1 1s.4 1 1 1h48c.6 0 1-.4 1-1s-.4-1-1-1h-3.6l-3-3h.6c.3 0 .5-.1.7-.3zM50 23v6.6L47.6 32H46v-9zm-6-7v16h-2V22c0-.6-.4-1-1-1H23c-.6 0-1 .4-1 1v19h-2V16zM27 32c-.6 0-1 .4-1 1v4c0 .6.4 1 1 1h3.6l-3 3H24v-6.6L35.4 23H40v9zm13 6v3h-9.6l3-3zm4 0v3h-2v-3zM32.6 23 24 31.6v-2.2l6.4-6.4zM24 26.6V23h3.6zM14 23h4v18h-4zm35.6 18H46v-3h.6zM28 36v-2h20c.3 0 .5-.1.7-.3l3-3 1.3-1.3 1.6 1.6-5 5z" fill="#807474" opacity="1" data-original="#000000" class=""></path></g></svg>