<svg xmlns="http://www.w3.org/2000/svg" version="1.1" xmlns:xlink="http://www.w3.org/1999/xlink" width="512" height="512" x="0" y="0" viewBox="0 0 480 480" style="enable-background:new 0 0 512 512" xml:space="preserve"><g><path d="M121 161.536V57.553c0-18.251 14.849-33.1 33.1-33.1h171.81c18.251 0 33.1 14.849 33.1 33.1l.081 103.908c.031 11.557-5.826 22.11-15.669 28.217a7.96 7.96 0 0 1-4.21 1.203c-7.994 0-11.071-10.552-4.226-14.799 5.091-3.158 8.121-8.614 8.104-14.593l-.08-103.929c0-9.435-7.671-17.106-17.1-17.106H154.1c-9.429 0-17.1 7.671-17.1 17.1v103.982c0 5.958 3.028 11.396 8.1 14.544a8 8 0 0 1 2.578 11.016 7.998 7.998 0 0 1-11.016 2.578C126.854 183.586 121 173.067 121 161.536zm359 88.008c0-17.645-14.355-32-32-32H343a8 8 0 0 0 0 16h105c8.822 0 16 7.178 16 16s-7.178 16-16 16h-89a8 8 0 0 0 0 16h73.333v166a8 8 0 0 0 16 0V281.536c17.491-.18 31.667-14.458 31.667-31.992zM308.577 360.723l22.125 84.802a8 8 0 0 1-5.722 9.76 8 8 0 0 1-9.761-5.721l-21.544-82.576c-9.669 2.543-7.777 1.906-92.588 1.906-5.1 0-10.046-.666-14.762-1.906l-21.545 82.576a8.004 8.004 0 0 1-7.735 5.982c-5.252 0-9.066-4.965-7.747-10.021l22.125-84.802c-21.44-12.79-32.558-37.873-27.02-62.605l3.71-16.574H47.667v166a8 8 0 0 1-16 0V281.536C14.176 281.356 0 267.078 0 249.544c0-17.645 14.355-32 32-32h130.442l1.974-8.816c7.918-35.366 39.37-60.534 75.584-60.534 36.241 0 67.672 25.194 75.584 60.534C337.412 306.224 337 302.094 337 310.808c0 21.197-11.419 39.771-28.423 49.915zM158.86 233.544H32c-8.822 0-16 7.178-16 16s7.178 16 16 16h119.696zm161.123 68.068-20.013-89.389c-6.331-28.279-30.991-48.029-59.971-48.029s-53.64 19.75-59.971 48.029l-20.013 89.39c-5.9 26.359 14.263 51.282 41.07 51.282h77.826c26.789 0 46.977-24.898 41.072-51.283z" fill="#787276" opacity="1" data-original="#000000"></path></g></svg>