<svg xmlns="http://www.w3.org/2000/svg" version="1.1" xmlns:xlink="http://www.w3.org/1999/xlink" width="512" height="512" x="0" y="0" viewBox="0 0 512 512" style="enable-background:new 0 0 512 512" xml:space="preserve" class=""><g><path d="M466.433 80.144H45.567C20.441 80.144 0 100.586 0 125.711v100.556c0 25.126 20.441 45.567 45.567 45.567h420.866c25.126 0 45.567-20.441 45.567-45.567V125.711c0-25.125-20.441-45.567-45.567-45.567zM442.061 256.32H69.936v-8.901c0-10.116 8.231-18.347 18.347-18.347h335.431c10.116 0 18.347 8.231 18.347 18.347zm54.424-30.052c0 16.571-13.482 30.052-30.052 30.052h-8.857v-8.901c0-18.672-15.191-33.862-33.862-33.862H88.283c-18.672 0-33.862 15.19-33.862 33.862v8.901h-8.854c-16.571 0-30.052-13.481-30.052-30.052V125.711c0-16.571 13.481-30.052 30.052-30.052h420.866c16.571 0 30.052 13.481 30.052 30.052zm-62.211-93.4c-14.211 0-25.773 11.562-25.773 25.773s11.562 25.773 25.773 25.773c14.212 0 25.773-11.562 25.773-25.773s-11.562-25.773-25.773-25.773zm0 36.031c-5.656 0-10.258-4.602-10.258-10.258s4.601-10.258 10.258-10.258 10.258 4.601 10.258 10.258-4.602 10.258-10.258 10.258zm-95.47 152.736c-.697-21.584-17.159-36.289-17.859-36.904a7.758 7.758 0 0 0-10.241 11.655c.121.107 12.118 11.046 12.593 25.749.299 9.268-4.061 18.478-12.958 27.375-20.511 20.511-19.339 41.411-14.744 55.333 4.801 14.544 14.302 24.296 14.704 24.704a7.712 7.712 0 0 0 5.511 2.308 7.742 7.742 0 0 0 5.431-2.219c3.054-2.989 3.106-7.896.127-10.961-.076-.078-7.617-7.923-11.188-19.151-4.469-14.053-.725-27.189 11.129-39.044 12.053-12.049 17.939-25.119 17.495-38.845zm34.483 15.489c-.457-14.152-10.699-23.548-11.866-24.572a7.758 7.758 0 0 0-10.241 11.655c.063.056 6.357 5.913 6.599 13.418.153 4.742-2.19 9.567-6.964 14.341-10.562 10.562-14 23.584-9.68 36.668 3.079 9.329 8.978 15.493 9.641 16.165a7.732 7.732 0 0 0 5.526 2.313 7.757 7.757 0 0 0 5.525-13.202c-.039-.04-4.014-4.249-5.958-10.139-2.491-7.545-.555-14.36 5.919-20.834 7.927-7.928 11.796-16.613 11.499-25.813zm-87.249 0c-.457-14.152-10.699-23.548-11.866-24.572a7.758 7.758 0 1 0-10.24 11.655c.063.056 6.357 5.913 6.599 13.418.153 4.742-2.19 9.567-6.964 14.341-10.562 10.562-14 23.584-9.68 36.668 3.08 9.329 8.978 15.493 9.641 16.165a7.732 7.732 0 0 0 5.526 2.313 7.756 7.756 0 0 0 5.525-13.202c-.039-.04-4.014-4.249-5.958-10.139-2.491-7.545-.555-14.36 5.919-20.834 7.926-7.928 11.795-16.613 11.498-25.813zm-91.715.168a7.759 7.759 0 0 0-10.597-2.84L164.33 345.65V320.9c0-4.285-3.473-7.758-7.758-7.758s-7.758 3.473-7.758 7.758v24.75l-21.435-12.375a7.758 7.758 0 0 0-7.758 13.436l21.435 12.375-21.435 12.375a7.757 7.757 0 0 0 3.886 14.477c1.316 0 2.65-.336 3.872-1.041l21.435-12.375v22.396a7.758 7.758 0 0 0 15.516 0v-22.397l19.396 11.198a7.754 7.754 0 0 0 10.597-2.839 7.758 7.758 0 0 0-2.839-10.597l-19.396-11.198 19.396-11.198a7.755 7.755 0 0 0 2.839-10.595z" fill="#787276" opacity="1" data-original="#000000" class=""></path></g></svg>