<svg xmlns="http://www.w3.org/2000/svg" version="1.1" xmlns:xlink="http://www.w3.org/1999/xlink" width="512" height="512" x="0" y="0" viewBox="0 0 581 581.358" style="enable-background:new 0 0 512 512" xml:space="preserve" class=""><g><path d="M329.398 367.98c0 53.477 43.352 96.829 96.829 96.829 53.472 0 96.824-43.352 96.824-96.829 0-53.472-43.352-96.824-96.824-96.824-53.454.059-96.77 43.375-96.829 96.824zm96.829-77.46c42.78 0 77.46 34.68 77.46 77.46s-34.68 77.461-77.46 77.461-77.461-34.68-77.461-77.46c.046-42.758 34.699-77.415 77.46-77.461zM370.898 561.637h110.664V581H370.899zM329.398 522.902h193.657v19.368H329.398zM116.379 522.902h19.367v19.368H116.38zM58.285 542.27h19.363v19.367H58.285zm0 0" fill="#787276" opacity="1" data-original="#000000" class=""></path><path d="M117.348 468.418a733.336 733.336 0 0 0 93.156-286.606l90.05 89.516a9.666 9.666 0 0 0 6.778 2.817 9.666 9.666 0 0 0 8.664-5.352c18.254-36.434 11.106-80.465-17.738-109.25l-7.918-7.922h68.105c5.348.004 9.688-4.328 9.688-9.676a9.651 9.651 0 0 0-.496-3.074c-12.86-38.672-49.047-64.75-89.801-64.71H265.25l48.355-48.638c3.774-3.789 3.758-9.918-.03-13.691a9.654 9.654 0 0 0-2.505-1.8c-36.449-18.274-80.504-11.13-109.308 17.73l-9.246 9.246a94.7 94.7 0 0 0-8.395 9.683 93.036 93.036 0 0 0-8.32-9.683l-9.246-9.246C137.773-1.078 93.742-8.223 57.316 10.032c-4.785 2.39-6.726 8.206-4.336 12.988.461.925 1.07 1.77 1.801 2.503l48.41 48.637h-12.71C49.726 74.121 13.534 100.2.68 138.871c-1.696 5.07 1.043 10.555 6.117 12.25.988.332 2.027.5 3.074.5h68.04l-7.919 7.922C41.148 188.328 34 232.359 52.25 268.793a9.68 9.68 0 0 0 8.668 5.352 9.67 9.67 0 0 0 6.824-2.817l83.856-83.36A524.803 524.803 0 0 1 50.363 443.864a361.284 361.284 0 0 0-39.523-8.054l-6.05-.61-1.938 19.278 5.644.55c9.684 1.387 19.305 3.344 28.875 5.559-1.937 2.43-3.875 4.898-5.879 7.293L46.344 480.3a545.139 545.139 0 0 0 126.672-313.633l11.144-11.074 8.344 8.297A707.95 707.95 0 0 1 69.719 507.625l15.86 11.098c7.612-10.868 14.874-22.145 21.913-33.637a343.434 343.434 0 0 1 117.16 91.789l14.977-12.27a361.668 361.668 0 0 0-64.3-61.066h405.82v-19.367H146.64c-9.493-5.73-19.29-10.922-29.293-15.754zm186.43-221.211L201.472 145.492a74.687 74.687 0 0 1 73.918 18.492l9.246 9.25a75.177 75.177 0 0 1 19.14 73.973zm39.894-114.95H263.5a94.43 94.43 0 0 0-59.977-7.155 75.088 75.088 0 0 1 61.207-31.575h13.07a75.18 75.18 0 0 1 65.872 38.73zM206.176 50.7l9.25-9.246a75.233 75.233 0 0 1 74.012-19.144l-57.399 57.738a94.44 94.44 0 0 0-45.71 35.875 73.29 73.29 0 0 1 19.878-65.223zm-53.34-9.246 9.246 9.246a73.488 73.488 0 0 1 11.137 14.668 92.124 92.124 0 0 0-7.399 32.188 94.452 94.452 0 0 0-29.53-17.508L78.878 22.309a75.2 75.2 0 0 1 73.984 19.144zM90.449 93.527h13.074a75.108 75.108 0 0 1 61.27 31.563 94.472 94.472 0 0 0-59.945 7.168H24.645a75.189 75.189 0 0 1 65.835-38.73zm-25.91 153.68a75.18 75.18 0 0 1 19.145-73.973l9.246-9.25a74.006 74.006 0 0 1 52.5-21.609 76.581 76.581 0 0 1 21.457 3.078zm0 0" fill="#787276" opacity="1" data-original="#000000" class=""></path></g></svg>