<svg xmlns="http://www.w3.org/2000/svg" version="1.1" xmlns:xlink="http://www.w3.org/1999/xlink" width="512" height="512" x="0" y="0" viewBox="0 0 64 64" style="enable-background:new 0 0 512 512" xml:space="preserve" class=""><g><g data-name="Layer 5"><path d="M12 17a5 5 0 1 1 5-5 5.006 5.006 0 0 1-5 5Zm0-8a3 3 0 1 0 3 3 3 3 0 0 0-3-3ZM58 47h-2a3.009 3.009 0 0 0-3-3H42V25.18A3.01 3.01 0 0 1 44 28a1 1 0 0 0 2 0 3 3 0 0 1 6 0 1 1 0 0 0 2 0 3 3 0 0 1 6 0 1 1 0 0 0 2 0A21 21 0 0 0 41.99 7.05c0-.02.01-.03.01-.05V5a1 1 0 0 0-2 0v2c0 .02.01.03.01.05A21 21 0 0 0 20 28a1 1 0 0 0 2 0 3 3 0 0 1 6 0 1 1 0 0 0 2 0 3 3 0 0 1 6 0 1 1 0 0 0 2 0 3.01 3.01 0 0 1 2-2.82V44H23.41L13 33.58a2.987 2.987 0 0 0-4.04-.18l-.67.55a3.823 3.823 0 0 0-5 5.76l14.46 14.46-3.62 6.33a1.044 1.044 0 0 0 0 1 1 1 0 0 0 .87.5h5a1 1 0 0 0 .87-.5l3.71-6.5H40v6a1 1 0 0 0 2 0v-6h6.42l3.71 6.5a1 1 0 0 0 .87.5h5a1 1 0 0 0 .87-.5 1.044 1.044 0 0 0 0-1L55.72 55H58a4 4 0 0 0 0-8Zm1.5-23.33a4.984 4.984 0 0 0-5.53.36A17.1 17.1 0 0 0 47.2 11.4l-2.78-2.09A19.06 19.06 0 0 1 59.5 23.67ZM46 13a15.044 15.044 0 0 1 5.94 10.97 4.951 4.951 0 0 0-5.94.04v-.23a30.94 30.94 0 0 0-2.22-11.52l-.53-1.32ZM28.03 24.03a4.984 4.984 0 0 0-5.53-.36A19.06 19.06 0 0 1 37.58 9.31L34.8 11.4a17.1 17.1 0 0 0-6.77 12.63Zm7.97-.25v.23a4.951 4.951 0 0 0-5.94-.04A15.044 15.044 0 0 1 36 13l2.75-2.06-.53 1.32A30.94 30.94 0 0 0 36 23.78Zm2 .23v-.23a28.975 28.975 0 0 1 2.07-10.77l.93-2.32.93 2.32A28.975 28.975 0 0 1 44 23.78v.23a4.96 4.96 0 0 0-6 0ZM10.24 34.94a.977.977 0 0 1 1.34.06l10.71 10.71A1.033 1.033 0 0 0 23 46h30a1 1 0 0 1 1 1H21.41L9.75 35.34ZM19.42 60h-2.7l2.86-5h2.7Zm36.86 0h-2.7l-2.86-5h2.7ZM58 53H19.41L4.71 38.29a1.824 1.824 0 0 1 2.58-2.58l13 13A1.033 1.033 0 0 0 21 49h37a2 2 0 0 1 0 4ZM12 6a1 1 0 0 1-1-1V3a1 1 0 0 1 2 0v2a1 1 0 0 1-1 1ZM8.5 6.938a1 1 0 0 1-.867-.5l-1-1.732a1 1 0 1 1 1.732-1l1 1.732a1 1 0 0 1-.865 1.5ZM5.937 9.5a1 1 0 0 1-.5-.134l-1.731-1a1 1 0 1 1 1-1.732l1.731 1a1 1 0 0 1-.5 1.866ZM5 13H3a1 1 0 0 1 0-2h2a1 1 0 0 1 0 2ZM4.207 17.5a1 1 0 0 1-.5-1.866l1.731-1a1 1 0 1 1 1 1.732l-1.731 1a.992.992 0 0 1-.5.134ZM7.5 20.794a1 1 0 0 1-.865-1.5l1-1.732a1 1 0 0 1 1.732 1l-1 1.732a1 1 0 0 1-.867.5ZM12 22a1 1 0 0 1-1-1v-2a1 1 0 0 1 2 0v2a1 1 0 0 1-1 1Z" fill="#787276" opacity="1" data-original="#000000"></path><path d="M16.5 20.794a1 1 0 0 1-.867-.5l-1-1.732a1 1 0 0 1 1.732-1l1 1.732a1 1 0 0 1-.865 1.5ZM19.793 17.5a.992.992 0 0 1-.5-.134l-1.732-1a1 1 0 0 1 1-1.732l1.732 1a1 1 0 0 1-.5 1.866ZM21 13h-2a1 1 0 0 1 0-2h2a1 1 0 0 1 0 2ZM18.063 9.5a1 1 0 0 1-.5-1.866l1.732-1a1 1 0 1 1 1 1.732l-1.732 1a.992.992 0 0 1-.5.134ZM15.5 6.938a1 1 0 0 1-.865-1.5l1-1.732a1 1 0 1 1 1.732 1l-1 1.732a1 1 0 0 1-.867.5Z" fill="#787276" opacity="1" data-original="#000000"></path></g></g></svg>