<svg xmlns="http://www.w3.org/2000/svg" version="1.1" xmlns:xlink="http://www.w3.org/1999/xlink" width="512" height="512" x="0" y="0" viewBox="0 0 512.002 512.002" style="enable-background:new 0 0 512 512" xml:space="preserve"><g><path d="M295.171 157.403c-1.674-1.673-2.595-3.898-2.595-6.265s.921-4.592 2.595-6.265a7.5 7.5 0 0 0-10.607-10.608c-4.507 4.507-6.989 10.499-6.989 16.873s2.482 12.366 6.988 16.872c3.455 3.455 3.455 9.077.001 12.532a7.5 7.5 0 0 0 10.607 10.606c9.304-9.303 9.304-24.441 0-33.745zM369.015 157.403c-1.673-1.674-2.595-3.899-2.595-6.266s.922-4.592 2.595-6.266a7.5 7.5 0 0 0-10.606-10.607c-9.303 9.303-9.303 24.441 0 33.744a8.81 8.81 0 0 1 2.595 6.267 8.8 8.8 0 0 1-2.596 6.265 7.5 7.5 0 0 0 10.607 10.608c4.507-4.507 6.989-10.499 6.989-16.872s-2.483-12.366-6.989-16.873z" fill="#787276" opacity="1" data-original="#000000"></path><path d="M412.004 239.527h-9.799c.061-.581.095-1.17.095-1.767v-13.796c0-9.245-7.522-16.767-16.767-16.767h-11.425a7.5 7.5 0 0 0 0 15h11.425c.974 0 1.767.792 1.767 1.767v13.796a1.77 1.77 0 0 1-1.767 1.767H245.029a1.769 1.769 0 0 1-1.767-1.767v-13.796c0-.974.792-1.767 1.767-1.767h93.685a7.5 7.5 0 0 0 0-15h-93.685c-9.245 0-16.767 7.521-16.767 16.767v13.796c0 .597.034 1.186.095 1.767h-64.848a25.255 25.255 0 0 0-1.799-4.317L337.43 59.49c6.382-6.382 6.382-16.765 0-23.147l-8.061-8.061C311.132 10.044 286.883 0 261.09 0s-50.042 10.044-68.28 28.283l-9.497 9.497-5.554-5.554c-6.95-6.95-17.814-7.395-24.22-.99l-30.932 30.932c-6.405 6.405-5.961 17.27.99 24.22l5.554 5.554-9.498 9.498c-36.706 36.707-37.608 95.845-2.741 133.676a25.189 25.189 0 0 0-2.98 11.911c0 11.403 7.568 21.07 17.944 24.248.053 1.302.129 2.599.234 3.887h-27.506c-11.566 0-20.977 9.41-20.977 20.977 0 11.566 9.41 20.976 20.977 20.976h41.058c12.493 20.657 32.503 36.282 56.213 43.051l-22.921 88.748a7.5 7.5 0 0 0 7.267 9.377 7.503 7.503 0 0 0 7.256-5.626l23.121-89.525c3.853.47 7.774.716 11.752.716h4.897l-32.808 127.029a8.143 8.143 0 0 1-7.88 6.115 8.155 8.155 0 0 1-2.048-.263c-2.107-.544-3.877-1.877-4.982-3.752s-1.415-4.068-.87-6.176l2.946-11.407a7.5 7.5 0 0 0-5.386-9.137 7.497 7.497 0 0 0-9.137 5.386l-2.946 11.407a22.996 22.996 0 0 0 2.472 17.545 22.996 22.996 0 0 0 14.151 10.658c1.898.491 3.85.74 5.801.74 10.55 0 19.763-7.141 22.404-17.364l11.068-42.854h108.196l3.348 12.922a31.99 31.99 0 0 0-3.774 15.104c0 17.751 14.442 32.193 32.193 32.193 17.752 0 32.194-14.442 32.194-32.193 0-11.887-6.481-22.283-16.09-27.859l-23.779-91.791c24.934-7.128 45.772-24.053 58.075-46.324.285-.418.527-.866.724-1.338 7.179-13.494 11.255-28.879 11.255-45.201v-11.4c-.002-9.027-7.345-16.369-16.37-16.369zM133.213 72.774l30.931-30.931c.31-.308 1.765-.254 3.008.989l5.554 5.554-32.949 32.949-5.554-5.554c-.948-.948-1.111-1.891-1.138-2.252-.025-.344.033-.64.148-.755zm-2.954 39.272 73.157-73.157C218.822 23.484 239.304 15 261.09 15s42.268 8.484 57.673 23.889l8.061 8.061a1.37 1.37 0 0 1 0 1.934l-175.72 175.72a25.188 25.188 0 0 0-11.817-2.932 25.192 25.192 0 0 0-11.724 2.884c-29.072-31.97-28.177-81.637 2.696-112.51zm-25.656 190.069a5.984 5.984 0 0 1-5.977-5.976 5.984 5.984 0 0 1 5.977-5.977h29.927a95.699 95.699 0 0 0 3.756 11.953h-33.683zm34.684-44.733c-5.71 0-10.355-4.646-10.355-10.355 0-5.71 4.646-10.355 10.355-10.355 5.71 0 10.355 4.646 10.355 10.355.001 5.71-4.645 10.355-10.355 10.355zm90.618 179.399 4.21-16.299h92.004l4.222 16.299H229.905zm8.084-31.299 10.751-41.626h62.71l10.784 41.626h-84.245zm145.199 74.325c0 9.48-7.713 17.193-17.194 17.193-9.48 0-17.193-7.713-17.193-17.193 0-9.481 7.713-17.194 17.193-17.194 9.481 0 17.194 7.713 17.194 17.194zm-17.706-32.181a31.967 31.967 0 0 0-15.701 4.385l-22.837-88.154h4.865c3.989 0 7.922-.248 11.786-.72l21.887 84.489zm-33.673-98.77H228.35c-26.223 0-49.58-12.453-64.51-31.741h232.48c-14.931 19.288-38.287 31.741-64.511 31.741zm73.738-46.741H154.612a80.968 80.968 0 0 1-7.726-30.898 25.465 25.465 0 0 0 16.623-16.691h248.495c.754 0 1.367.613 1.367 1.367v11.401h.001a81.066 81.066 0 0 1-7.825 34.821z" fill="#787276" opacity="1" data-original="#000000"></path><path d="M332.093 157.404c-1.673-1.674-2.595-3.899-2.595-6.266s.922-4.592 2.595-6.266a7.5 7.5 0 0 0-10.606-10.607c-9.303 9.303-9.303 24.441 0 33.744 1.674 1.674 2.596 3.899 2.596 6.266s-.922 4.592-2.596 6.265a7.502 7.502 0 0 0 5.303 12.805 7.477 7.477 0 0 0 5.303-2.196 23.705 23.705 0 0 0 6.989-16.872 23.707 23.707 0 0 0-6.989-16.873z" fill="#787276" opacity="1" data-original="#000000"></path></g></svg>