<svg xmlns="http://www.w3.org/2000/svg" version="1.1" xmlns:xlink="http://www.w3.org/1999/xlink" width="512" height="512" x="0" y="0" viewBox="0 0 511 511" style="enable-background:new 0 0 512 512" xml:space="preserve" class=""><g><path d="M185.5 376c6.893 0 12.5 5.607 12.5 12.5h15c0-15.163-12.336-27.5-27.5-27.5S158 373.337 158 388.5v30c0 15.163 12.336 27.5 27.5 27.5s27.5-12.337 27.5-27.5h-15c0 6.893-5.607 12.5-12.5 12.5s-12.5-5.607-12.5-12.5v-30c0-6.893 5.607-12.5 12.5-12.5zM283 388.5c0-15.163-12.336-27.5-27.5-27.5S228 373.337 228 388.5v30c0 15.163 12.336 27.5 27.5 27.5s27.5-12.337 27.5-27.5zm-15 30c0 6.893-5.607 12.5-12.5 12.5s-12.5-5.607-12.5-12.5v-30c0-6.893 5.607-12.5 12.5-12.5s12.5 5.607 12.5 12.5zM298 388.5v1h15v-1c0-6.893 5.607-12.5 12.5-12.5s12.5 5.607 12.5 12.5a5.942 5.942 0 0 1-1.444 3.882L300 434.71V446h53.5v-15h-30.477l24.885-28.814a20.95 20.95 0 0 0 5.091-13.686c0-15.163-12.336-27.5-27.5-27.5S298 373.337 298 388.5zM165.384 239.617C189.491 263.724 221.495 277 255.5 277s66.009-13.276 90.116-37.383L335.01 229.01C313.735 250.284 285.499 262 255.5 262s-58.235-11.716-79.51-32.99z" fill="#787276" opacity="1" data-original="#000000" class=""></path><path d="M193.655 211.346C210.198 227.889 232.162 237 255.5 237s45.302-9.111 61.845-25.654l-10.606-10.606C293.029 214.449 274.832 222 255.5 222s-37.529-7.551-51.239-21.261zM232.519 172.48l-10.606 10.607C230.884 192.06 242.812 197 255.5 197s24.616-4.94 33.587-13.912l-10.606-10.607c-6.139 6.139-14.3 9.52-22.981 9.52s-16.842-3.382-22.981-9.521zM358.5 481a47.558 47.558 0 0 1-30.307-10.927l-5.366-4.453-4.831 5.028C302.289 486.997 281.159 496 258.5 496c-21.581 0-41.994-8.283-57.477-23.325l-3.547-3.445-4.565 1.902c-7.747 3.23-15.96 4.868-24.411 4.868-35.014 0-63.5-28.486-63.5-63.5 0-9.764 2.156-19.126 6.411-27.825l-13.476-6.59C92.669 388.854 90 400.434 90 412.5c0 43.285 35.215 78.5 78.5 78.5 8.8 0 17.396-1.438 25.618-4.283C211.933 502.412 234.61 511 258.5 511c24.562 0 47.602-8.951 65.572-25.339A62.623 62.623 0 0 0 358.5 496c10.755 0 21.365-2.779 30.682-8.038l-7.373-13.063C374.737 478.891 366.677 481 358.5 481zM409.363 397.19c6.254-8.212 9.637-18.184 9.637-28.69 0-12.506-4.821-24.311-13.575-33.238-7.407-7.555-16.929-12.339-27.253-13.785C371 300.332 351.302 286 328.5 286c-21.501 0-40.497 12.992-48.509 32.382-12.174-2.74-24.978-3.118-37.35-1.094C231.561 298.104 210.911 286 188.5 286c-33.79 0-61.402 26.955-62.468 60.49a78.453 78.453 0 0 0-19.298 17.577l11.794 9.268a63.552 63.552 0 0 1 18.726-16.106l3.976-2.253-.18-4.567a48.34 48.34 0 0 1-.05-1.908c0-26.191 21.309-47.5 47.5-47.5 18.558 0 35.528 10.925 43.233 27.831l2.53 5.551 5.95-1.346a82.949 82.949 0 0 1 18.287-2.036 82.55 82.55 0 0 1 24.182 3.603l7.533 2.305 1.932-7.638c4.21-16.645 19.16-28.27 36.353-28.27 17.635 0 32.67 11.999 36.561 29.18l1.294 5.715 5.859.126C389.741 336.398 404 350.969 404 368.5c0 8.756-3.435 16.969-9.672 23.125l-5.068 5.003 4.733 5.32A47.418 47.418 0 0 1 406 433.5c0 12.685-4.938 24.61-13.905 33.58l10.608 10.605C414.502 465.882 421 450.189 421 433.5a62.395 62.395 0 0 0-11.637-36.31zM144.644 75l20 80h113.394v-15H176.356l-16.25-65H210.5V60h-79.594l-15-45h231.348V0H95.094l25 75z" fill="#787276" opacity="1" data-original="#000000" class=""></path><path d="M390.094 30H335.5v15h49.594l-5 15H225.5v15h125.394l-16.25 65h-41.606v15h53.318l20-80h24.55l25-75h-53.652v15h32.84z" fill="#787276" opacity="1" data-original="#000000" class=""></path><path d="M305.5 30h15v15h-15zM267 92.5h15v30h-15zM305 92.5h15v30h-15zM229 92.5h15v30h-15zM191 92.5h15v30h-15zM275.5 30h15v15h-15zM125.5 406h15v15h-15zM320.5 325h15v15h-15zM262.5 461h15v15h-15z" fill="#787276" opacity="1" data-original="#000000" class=""></path></g></svg>