<svg xmlns="http://www.w3.org/2000/svg" version="1.1" xmlns:xlink="http://www.w3.org/1999/xlink" width="512" height="512" x="0" y="0" viewBox="0 0 128 128" style="enable-background:new 0 0 512 512" xml:space="preserve"><g><path d="M124.842 43.237c-3.279-4.88-9.031-8.339-13.008-5.671L71.162 66.148a6.127 6.127 0 0 0-2.879-1.65V22.092c1.771-.99 4.825-3.2 4.825-6.68 0-2.379-1.183-6.37-9.11-6.37s-9.1 3.991-9.1 6.37c0 3.457 3.018 5.664 4.788 6.663V64.5a6.153 6.153 0 0 0-2.876 1.64L16.13 37.548c-3.95-2.653-9.7.81-12.981 5.689-2.955 4.4-2.948 8.527.04 10.537l43.486 28.1c-.006.148-.009.3-.009.443a9.016 9.016 0 0 0 .061.992l-32.021 22.5a4.684 4.684 0 0 0-2.145 4.354c.2 2.905 2.75 6.189 6.063 7.808a8.37 8.37 0 0 0 3.658.923 5.791 5.791 0 0 0 3.286-.982l34.441-22.264a14.519 14.519 0 0 0 3.979.7 14.027 14.027 0 0 0 3.891-.7l34.531 22.324a5.851 5.851 0 0 0 3.317 1 8.349 8.349 0 0 0 3.651-.921c3.312-1.619 5.863-4.9 6.063-7.808a4.672 4.672 0 0 0-2.121-4.337L81.241 83.354a8.478 8.478 0 0 0 .07-1.037c0-.144 0-.29-.008-.435l43.52-28.123c2.966-1.995 2.977-6.125.019-10.522zM57.9 15.412c0-.834 0-3.37 6.1-3.37 4.055 0 6.11 1.134 6.11 3.37a4.487 4.487 0 0 1-2.075 3.264 4.334 4.334 0 0 0-8.09-.02 4.473 4.473 0 0 1-2.045-3.244zm7.385 4.594v43.953c-.433-.033-.869-.051-1.3-.051s-.863.018-1.3.051v-42.65a1.38 1.38 0 0 0 0-.265v-1.038a1.313 1.313 0 0 1 2.6 0zm-1.3 46.9a9.135 9.135 0 0 1 4.679 1L64 71.185 59.316 67.9a9.209 9.209 0 0 1 4.665-.992zM4.841 51.269c-1.767-1.188-.674-4.168.8-6.359 2.362-3.518 6.565-6.384 8.792-4.889l45.13 31.716c-7.681.8-11.02 3.74-12.261 6.969zm19.075 64.141c-1.355.912-3.072.309-3.975-.133-2.294-1.122-4.262-3.508-4.387-5.319a1.7 1.7 0 0 1 .852-1.676l31.2-21.926c1.667 3.512 5.31 6.243 8.941 7.955zm40.072-22.065c-3.57 0-14.322-4.453-14.322-11.028 0-5.17 4.809-7.793 14.294-7.8a.243.243 0 0 0 .027 0c9.5 0 14.323 2.624 14.323 7.8.001 6.452-10.86 11.028-14.322 11.028zm47.632 15.021a1.688 1.688 0 0 1 .828 1.66c-.125 1.811-2.094 4.2-4.387 5.319-.9.441-2.619 1.047-4 .117l-32.74-21.168c3.624-1.721 7.3-4.455 9-7.918zm11.552-57.112L80.679 78.713c-1.239-3.23-4.574-6.17-12.253-6.975l45.106-31.7c2.254-1.51 6.456 1.355 8.82 4.872 1.471 2.19 2.564 5.171.82 6.344z" fill="#787276" opacity="1" data-original="#000000"></path></g></svg>