<svg xmlns="http://www.w3.org/2000/svg" version="1.1" xmlns:xlink="http://www.w3.org/1999/xlink" width="512" height="512" x="0" y="0" viewBox="0 0 64 64" style="enable-background:new 0 0 512 512" xml:space="preserve" fill-rule="evenodd" class=""><g><path d="M30.958 33.042H22A3.045 3.045 0 0 1 18.958 30V12A9.042 9.042 0 0 1 28 2.958h8A9.042 9.042 0 0 1 45.042 12v18A3.045 3.045 0 0 1 42 33.042h-8.958v1.916H42A3.045 3.045 0 0 1 45.042 38v.958h3.916v-1.916H48A1.043 1.043 0 0 1 46.958 36v-7c0-1.128.914-2.042 2.042-2.042h2c1.128 0 2.042.914 2.042 2.042v7c0 .575-.467 1.042-1.042 1.042h-.958V40c0 .575-.467 1.042-1.042 1.042h-8.958V44c0 .575-.467 1.042-1.042 1.042h-6.958v5.916H38A3.042 3.042 0 0 1 41.042 54v1.142a3.043 3.043 0 0 1-1.042 5.9 3.043 3.043 0 0 1-1.042-5.9V54a.958.958 0 0 0-.958-.958h-4.958v2.1a3.043 3.043 0 0 1-1.042 5.9 3.043 3.043 0 0 1-1.042-5.9v-2.1H26a.958.958 0 0 0-.958.958v1.142a3.043 3.043 0 0 1-1.042 5.9 3.043 3.043 0 0 1-1.042-5.9V54A3.042 3.042 0 0 1 26 50.958h4.958v-5.916H24A1.043 1.043 0 0 1 22.958 44v-2.958H14A1.043 1.043 0 0 1 12.958 40v-2.958H12A1.043 1.043 0 0 1 10.958 36v-7c0-1.128.914-2.042 2.042-2.042h2c1.128 0 2.042.914 2.042 2.042v7c0 .575-.467 1.042-1.042 1.042h-.958v1.916h3.916V38A3.045 3.045 0 0 1 22 34.958h8.958zm-6.958 24a.958.958 0 1 1 0 1.916.958.958 0 0 1 0-1.916zm16 0a.958.958 0 1 1 0 1.916.958.958 0 0 1 0-1.916zm-8 0a.958.958 0 1 1 0 1.916.958.958 0 0 1 0-1.916zm6.958-16H25.042v1.916h13.916zm4-2.084V38a.962.962 0 0 0-.28-.678.962.962 0 0 0-.678-.28H22a.962.962 0 0 0-.678.28.962.962 0 0 0-.28.678v.958zm-29.916-4h1.916v-5.916h-1.916zm36 0h1.916v-5.916h-1.916zM42.958 12A6.958 6.958 0 0 0 36 5.042h-8A6.958 6.958 0 0 0 21.042 12v18c0 .254.101.498.28.678.18.179.424.28.678.28h20a.962.962 0 0 0 .678-.28.962.962 0 0 0 .28-.678z" fill="#787276" opacity="1" data-original="#000000"></path></g></svg>