<svg xmlns="http://www.w3.org/2000/svg" version="1.1" xmlns:xlink="http://www.w3.org/1999/xlink" width="512" height="512" x="0" y="0" viewBox="0 0 480 480" style="enable-background:new 0 0 512 512" xml:space="preserve" class=""><g><path d="M424 432H56c-4.418 0-8-3.582-8-8a8 8 0 0 0-16 0c0 13.254 10.746 24 24 24h368c13.254 0 24-10.746 24-24a8 8 0 0 0-16 0 8 8 0 0 1-8 8zm0 0" fill="#787276" opacity="1" data-original="#000000" class=""></path><path d="M472 384h-32v-24a8 8 0 0 0-8-8H325.152a71.92 71.92 0 0 0 26.399-48H360c22.09 0 40-17.91 40-40s-17.91-40-40-40h-8v-8a8 8 0 0 0-8-8H216a8 8 0 0 0-8 8v80a71.861 71.861 0 0 0 26.848 56H192V112h24v8c.027 22.082 17.918 39.973 40 40v24a8 8 0 0 0 8 8h32a8 8 0 0 0 8-8v-24a39.626 39.626 0 0 0 23.8-8H384v8a8 8 0 0 0 8 8h64c13.254 0 24-10.746 24-24s-10.746-24-24-24h-64a8 8 0 0 0-8 8v8h-43.39a39.6 39.6 0 0 0 3.39-16v-8h56a8 8 0 0 0 8-8V72c-.043-39.746-32.254-71.957-72-72H8a8 8 0 0 0-8 8v416c.035 30.914 25.086 55.965 56 56h368c30.914-.035 55.965-25.086 56-56v-32a8 8 0 0 0-8-8zm-72-248h56a8 8 0 0 1 0 16h-56zm-40 104c13.254 0 24 10.746 24 24s-10.746 24-24 24h-8v-48zm-24-16v21.602l-2.29-.563a88.286 88.286 0 0 0-45.335 1l-15.8 4.594a72.379 72.379 0 0 1-34.2 1.465l-14.398-2.883V224zm-112 72v-30.457l11.2 2.25a88.46 88.46 0 0 0 41.808-1.785l15.8-4.594a72.144 72.144 0 0 1 37.087-.797l6.074 1.473V296c0 30.93-25.074 56-56 56-30.93 0-56-25.07-56-56zm200 72v16H192v-16zM288 176h-16v-16h16zm40-56c0 13.254-10.746 24-24 24h-48c-13.254 0-24-10.746-24-24v-8h96zM16 16h320c30.914.035 55.965 25.086 56 56v24H184a8 8 0 0 0-8 8v280H16zm448 408c-.027 22.082-17.918 39.973-40 40H56c-22.082-.027-39.973-17.918-40-40v-24h448zm0 0" fill="#787276" opacity="1" data-original="#000000" class=""></path><path d="M120 160H72c-13.254 0-24 10.746-24 24v144c0 13.254 10.746 24 24 24h48c13.254 0 24-10.746 24-24V184c0-13.254-10.746-24-24-24zm8 168a8 8 0 0 1-8 8H72a8 8 0 0 1-8-8V184a8 8 0 0 1 8-8h48a8 8 0 0 1 8 8zm0 0" fill="#787276" opacity="1" data-original="#000000" class=""></path><path d="M96 192c-13.254 0-24 10.746-24 24s10.746 24 24 24 24-10.746 24-24-10.746-24-24-24zm0 32a8 8 0 1 1 0-16 8 8 0 0 1 0 16zM96 264c-13.254 0-24 10.746-24 24s10.746 24 24 24 24-10.746 24-24-10.746-24-24-24zm0 32a8 8 0 1 1 0-16 8 8 0 0 1 0 16zM72 64h256a8 8 0 0 0 0-16H72a8 8 0 0 0 0 16zM352 64h8a8 8 0 0 0 0-16h-8a8 8 0 0 0 0 16zM56 56a8 8 0 0 0-8-8h-8a8 8 0 0 0 0 16h8a8 8 0 0 0 8-8zm0 0" fill="#787276" opacity="1" data-original="#000000" class=""></path></g></svg>