<svg xmlns="http://www.w3.org/2000/svg" version="1.1" xmlns:xlink="http://www.w3.org/1999/xlink" width="512" height="512" x="0" y="0" viewBox="0 0 512 512" style="enable-background:new 0 0 512 512" xml:space="preserve" class=""><g><path d="M498.916 306.591c-4.718-7.879-24.089-31.272-75.219-1.494l-90.155 52.511c-4.975 2.897-9.506 4.691-13.972 5.694 1.806-2.873 3.219-6.13 4.186-9.738 4.609-17.201-5.615-35.16-23.275-40.885a8.058 8.058 0 0 0-1.047-.263c-25.912-4.673-51.486-13.919-72.035-21.349-7.138-2.581-13.88-5.018-19.613-6.877-23.082-7.486-43.947 1.782-61.313 11.836L79.4 334.86l-6.324-11.174c-5.777-10.208-18.784-13.812-28.993-8.036l-25.294 14.316c-4.933 2.792-8.487 7.35-10.008 12.836s-.821 11.224 1.971 16.157L85.12 490.361c2.792 4.933 7.35 8.486 12.836 10.007 1.898.526 3.825.786 5.738.786 3.62 0 7.191-.931 10.418-2.757l25.296-14.316c10.208-5.778 13.813-18.784 8.036-28.992l-7.668-13.548 15.289-8.827 115.469 30.939c6.521 1.748 12.923 2.621 19.187 2.621 12.487 0 24.426-3.469 35.661-10.386l163.61-100.743c14.913-9.183 19.644-32.325 9.924-48.554zM131.524 470.156l-25.296 14.316a5.228 5.228 0 0 1-4.001.477 5.228 5.228 0 0 1-3.185-2.469L24.674 351.079a5.228 5.228 0 0 1-.477-4.001 5.231 5.231 0 0 1 2.47-3.186l25.295-14.316a5.15 5.15 0 0 1 2.546-.664c1.855 0 3.684.963 4.641 2.655l74.368 131.402c1.408 2.488.495 5.78-1.993 7.187zm349.077-128.635L316.992 442.264c-12.975 7.987-27.211 9.984-42.318 5.935l-118.671-31.797a7.997 7.997 0 0 0-6.07.799l-18.04 10.415-44.614-78.83 67.209-38.913c15.036-8.705 31.3-15.997 48.36-10.464 5.48 1.777 11.796 4.061 19.109 6.705 20.965 7.58 47.022 17 74.057 21.943 9.421 3.292 14.689 12.393 12.285 21.366-3.163 11.805-12.999 13.272-20.822 12.374-13.28-2.731-25.899-6.332-39.251-10.145-6.333-1.808-12.881-3.678-19.612-5.482a8.001 8.001 0 0 0-4.141 15.455c6.604 1.769 13.089 3.621 19.359 5.412 13.76 3.929 26.757 7.641 40.752 10.502.054.011.107.015.161.025.053.01.103.025.157.034l.392.064c19.917 3.239 35.648 5.798 56.299-6.228l90.155-52.511c25.952-15.116 45.93-16.651 53.44-4.111 5.178 8.643 2.863 22.122-4.587 26.709zm-421.3 13.433a9.031 9.031 0 1 1-17.873 2.613 9.031 9.031 0 0 1 7.63-10.243c4.936-.721 9.522 2.694 10.243 7.63zm252.225-41.916a8.003 8.003 0 0 0 7.546 0c60.277-32.244 106.229-69.334 136.578-110.241 26.281-35.424 39.423-72.079 38.004-106.004-1.524-36.447-20.354-65.945-50.372-78.906-18.254-7.882-39.615-9.156-61.772-3.686-22.137 5.465-44.384 17.282-66.212 35.158-21.828-17.876-44.075-29.693-66.212-35.158-22.159-5.47-43.519-4.197-61.772 3.686-30.017 12.961-48.848 42.459-50.372 78.907-1.418 33.924 11.723 70.58 38.004 106.003 30.351 40.906 76.303 77.996 136.58 110.241zM187.229 192.481a52.363 52.363 0 0 1 35.895-14.218h.02c23.818.005 44.136 15.803 50.444 37.968h-66.607c-6.993-7.514-13.398-15.171-19.183-22.968-.195-.262-.376-.52-.569-.782zm13.327-52.794c0-12.449 10.128-22.577 22.577-22.577s22.576 10.128 22.576 22.577c0 12.445-10.122 22.571-22.566 22.576h-.019c-12.445-.005-22.568-10.131-22.568-22.576zm92.167-25.582c0-12.449 10.128-22.577 22.577-22.577s22.577 10.128 22.577 22.577c0 12.441-10.116 22.564-22.555 22.576h-.044c-12.439-.012-22.555-10.134-22.555-22.576zm22.577 38.577.022-.001c19.433.008 36.937 10.568 46.058 27.343a68.338 68.338 0 0 0-9.487 10.625h-73.188a68.338 68.338 0 0 0-9.487-10.625c9.122-16.776 26.625-27.335 46.059-27.343a.177.177 0 0 0 .023.001zm-.001 144.212c-36.518-19.863-67.38-41.503-92.289-64.663h60.249a7.997 7.997 0 0 0 7.954-8.851 68.707 68.707 0 0 0-3.958-16.73h56.088a68.626 68.626 0 0 0-3.958 16.73 8 8 0 0 0 7.954 8.851h60.249c-24.908 23.16-55.77 44.8-92.289 64.663zm108.319-80.663h-66.607c6.308-22.166 26.626-37.964 50.445-37.969H407.476a52.362 52.362 0 0 1 35.894 14.218c-.193.262-.374.52-.569.782-5.785 7.798-12.189 15.455-19.183 22.969zm-38.728-76.544c0-12.449 10.128-22.577 22.577-22.577s22.576 10.128 22.576 22.577c0 12.446-10.122 22.572-22.567 22.576h-.02c-12.444-.006-22.566-10.131-22.566-22.576zM152.93 97.461c1.261-30.162 16.487-54.419 40.729-64.886 9.086-3.923 18.873-5.852 29.147-5.852 27.115 0 57.587 13.444 87.257 39.142a8 8 0 0 0 10.475 0c40.912-35.434 83.34-47.567 116.404-33.291 24.242 10.467 39.467 34.724 40.729 64.886.778 18.606-3.3 47.076-25.189 81.698a68.313 68.313 0 0 0-18.463-11.527c7.399-7.033 12.025-16.956 12.025-27.946 0-21.271-17.305-38.577-38.576-38.577s-38.577 17.306-38.577 38.577c0 10.975 4.615 20.886 11.996 27.918a68.16 68.16 0 0 0-6.41 3.081 68.139 68.139 0 0 0-32.589-28.668c7.378-7.031 11.99-16.94 11.99-27.912 0-21.271-17.306-38.577-38.577-38.577s-38.577 17.306-38.577 38.577c0 10.972 4.612 20.88 11.99 27.911a68.134 68.134 0 0 0-32.59 28.669 68.16 68.16 0 0 0-6.41-3.081c7.382-7.031 11.996-16.943 11.996-27.918 0-21.271-17.305-38.577-38.576-38.577s-38.577 17.306-38.577 38.577c0 10.989 4.627 20.912 12.025 27.945a68.292 68.292 0 0 0-18.463 11.528c-21.889-34.62-25.967-63.091-25.189-81.697z" fill="#787276" opacity="1" data-original="#000000" class=""></path></g></svg>