<svg xmlns="http://www.w3.org/2000/svg" version="1.1" xmlns:xlink="http://www.w3.org/1999/xlink" width="512" height="512" x="0" y="0" viewBox="0 0 60 60" style="enable-background:new 0 0 512 512" xml:space="preserve" class=""><g><path d="M55.84 30.83A26.985 26.985 0 0 0 56 28a28.063 28.063 0 1 0-19.183 26.558l4.627 4.8a2.075 2.075 0 0 0 1.5.642 2.07 2.07 0 0 0 1.5-.642l12.7-13.177a10.3 10.3 0 0 0 0-14.217 9.949 9.949 0 0 0-1.304-1.134Zm-1.9-1.084a9.415 9.415 0 0 0-3.239-.723c.215-.592.441-1.178.64-1.773a2.518 2.518 0 0 0-.374-2.319 2.244 2.244 0 0 0-1.92-.931A1 1 0 1 1 49 22h1a2.459 2.459 0 0 0 2.3-1.549l.319-.8A25.894 25.894 0 0 1 54 28c0 .586-.024 1.168-.064 1.746Zm-2.4-12.777-1.1 2.74A.475.475 0 0 1 50 20h-1a3 3 0 1 0 .121 6 .264.264 0 0 1 .241.131.532.532 0 0 1 .079.481c-.287.858-.6 1.71-.921 2.554a9.581 9.581 0 0 0-5.175 2.8l-.4.416-.4-.419A9.524 9.524 0 0 0 31.031 30.2 6 6 0 0 1 28 24.818 6.2 6.2 0 0 1 34.29 19h5.6a3.072 3.072 0 0 0 3.095-2.725A3.035 3.035 0 0 0 40 13h-6.75a2.219 2.219 0 0 1-2.209-1.71 2.1 2.1 0 0 1 .267-1.517l4.021-6.714a26.118 26.118 0 0 1 16.208 13.91ZM17 4.449a25.727 25.727 0 0 1 5-1.742V4.68a1.011 1.011 0 0 1-.6.92l-3 1.288A1.013 1.013 0 0 1 17 5.97ZM7.528 12h3.282a1.2 1.2 0 0 1 .9 1.969l-4.772 5.563A3.942 3.942 0 0 0 6 22.08 1.922 1.922 0 0 1 4.08 24H2.308a25.891 25.891 0 0 1 5.22-12Zm-2.56 28.042 1.957-4.407A2.749 2.749 0 0 1 9.44 34a2.78 2.78 0 0 1 1.953.807l.27.27a4.685 4.685 0 0 0 1.86 1.152l4.741 1.58A3.993 3.993 0 0 1 21 41.6v3.6a2.344 2.344 0 0 1-1.051 1.965A4.34 4.34 0 0 0 18 50.8V52A26.153 26.153 0 0 1 4.968 40.042ZM28 54a25.882 25.882 0 0 1-8-1.265V50.8a2.344 2.344 0 0 1 1.051-1.965A4.34 4.34 0 0 0 23 45.2v-3.6a5.989 5.989 0 0 0-4.1-5.688l-4.748-1.582a2.7 2.7 0 0 1-1.075-.667l-.27-.27A4.758 4.758 0 0 0 5.1 34.824l-1.243 2.8A25.851 25.851 0 0 1 2 28c0-.674.034-1.339.085-2h2A3.925 3.925 0 0 0 8 22.08a1.934 1.934 0 0 1 .459-1.249l4.773-5.563A3.227 3.227 0 0 0 10.81 10H9.265A26.167 26.167 0 0 1 15 5.5v.47a2.991 2.991 0 0 0 1.346 2.5 3.2 3.2 0 0 0 2.84.26l3-1.293A3.013 3.013 0 0 0 24 4.68V2.308a26.086 26.086 0 0 1 9.306.238L29.6 8.727a4.042 4.042 0 0 0-.527 2.938A4.187 4.187 0 0 0 33.25 15H40a.976.976 0 0 1 .712.306.949.949 0 0 1 .282.789 1.08 1.08 0 0 1-1.1.905h-5.6A8.21 8.21 0 0 0 26 24.763a8 8 0 0 0 3.292 6.683c-.191.171-.382.343-.562.531a10.606 10.606 0 0 0 .194 14.392l6.341 6.579A25.9 25.9 0 0 1 28 54Zm27.714-9.208L43.01 57.97h-.126L30.363 44.98a8.562 8.562 0 0 1-.19-11.618A7.526 7.526 0 0 1 41.1 33.35l1.121 1.171a1.031 1.031 0 0 0 1.445 0l1.117-1.168a7.519 7.519 0 0 1 10.927 0 8.3 8.3 0 0 1 0 11.439Z" fill="#787276" opacity="1" data-original="#000000"></path><path d="M49.5 44.139a1 1 0 0 0-1.365.359A5.9 5.9 0 0 1 43 47a5.906 5.906 0 0 1-5.135-2.5 1 1 0 0 0-1.733 1A7.868 7.868 0 0 0 43 49a7.868 7.868 0 0 0 6.868-3.5 1 1 0 0 0-.368-1.361ZM40 42a1 1 0 0 0 1-1v-1a1 1 0 0 0-2 0v1a1 1 0 0 0 1 1ZM46 42a1 1 0 0 0 1-1v-1a1 1 0 0 0-2 0v1a1 1 0 0 0 1 1Z" fill="#787276" opacity="1" data-original="#000000"></path></g></svg>