<svg xmlns="http://www.w3.org/2000/svg" version="1.1" xmlns:xlink="http://www.w3.org/1999/xlink" width="512" height="512" x="0" y="0" viewBox="0 0 32 32" style="enable-background:new 0 0 512 512" xml:space="preserve" class=""><g><path d="M29 14h-.5v-3A1.5 1.5 0 0 0 27 9.5h-1a1.64 1.64 0 0 0-.5.09V9A1.5 1.5 0 0 0 24 7.5h-1A1.5 1.5 0 0 0 21.5 9v5h-11V9A1.5 1.5 0 0 0 9 7.5H8A1.5 1.5 0 0 0 6.5 9v.59A1.64 1.64 0 0 0 6 9.5H5A1.5 1.5 0 0 0 3.5 11v3H3a1.5 1.5 0 0 0-1.5 1.5v1A1.5 1.5 0 0 0 3 18h.5v3A1.5 1.5 0 0 0 5 22.5h1a1.64 1.64 0 0 0 .5-.09V23A1.5 1.5 0 0 0 8 24.5h1a1.5 1.5 0 0 0 1.5-1.5v-5h11v5a1.5 1.5 0 0 0 1.5 1.5h1a1.5 1.5 0 0 0 1.5-1.5v-.59a1.64 1.64 0 0 0 .5.09h1a1.5 1.5 0 0 0 1.5-1.5v-3h.5a1.5 1.5 0 0 0 1.5-1.5v-1A1.5 1.5 0 0 0 29 14ZM3 17a.5.5 0 0 1-.5-.5v-1A.5.5 0 0 1 3 15h.5v2Zm3 4.5H5a.5.5 0 0 1-.5-.5V11a.5.5 0 0 1 .5-.5h1a.5.5 0 0 1 .5.5v10a.5.5 0 0 1-.5.5ZM9.5 23a.5.5 0 0 1-.5.5H8a.5.5 0 0 1-.5-.5V9a.5.5 0 0 1 .5-.5h1a.5.5 0 0 1 .5.5v14Zm1-6v-2h11v2Zm14 6a.5.5 0 0 1-.5.5h-1a.5.5 0 0 1-.5-.5V9a.5.5 0 0 1 .5-.5h1a.5.5 0 0 1 .5.5v14Zm3-2a.5.5 0 0 1-.5.5h-1a.5.5 0 0 1-.5-.5V11a.5.5 0 0 1 .5-.5h1a.5.5 0 0 1 .5.5v10Zm2-4.5a.5.5 0 0 1-.5.5h-.5v-2h.5a.5.5 0 0 1 .5.5Z" data-name="Layer 2" fill="#787276" opacity="1" data-original="#000000" class=""></path></g></svg>