<svg xmlns="http://www.w3.org/2000/svg" version="1.1" xmlns:xlink="http://www.w3.org/1999/xlink" width="512" height="512" x="0" y="0" viewBox="0 0 6.827 6.827" style="enable-background:new 0 0 512 512" xml:space="preserve" fill-rule="evenodd" class=""><g><g fill="#212121" fill-rule="nonzero"><path d="M3.413 2.975c.342 0 .653.14.878.365.225.226.365.536.365.878v.612a.628.628 0 0 1-.63.63H2.8a.628.628 0 0 1-.63-.63v-.612c0-.342.14-.652.365-.878.225-.225.536-.365.877-.365zm.733.51a1.035 1.035 0 0 0-1.466 0 1.035 1.035 0 0 0-.305.733v.612a.424.424 0 0 0 .426.426h1.225a.424.424 0 0 0 .425-.426v-.612c0-.285-.116-.545-.305-.733zM3.413 1.366a.78.78 0 0 1 .783.783.78.78 0 0 1-.783.782.78.78 0 0 1-.782-.782.78.78 0 0 1 .782-.783zm.403.38a.567.567 0 0 0-.805 0 .567.567 0 0 0 0 .805.567.567 0 0 0 .805 0 .567.567 0 0 0 0-.805zM4.906 1.813a.614.614 0 0 1 .615.615.614.614 0 0 1-.615.616.614.614 0 0 1-.616-.616.614.614 0 0 1 .616-.615zm.284.33a.401.401 0 0 0-.687.285.401.401 0 0 0 .687.285.401.401 0 0 0 0-.57z" fill="#787276" opacity="1" data-original="#212121" class=""></path><path d="M4.906 3.116c.264 0 .504.108.678.282a.958.958 0 0 1 .283.68v.46a.498.498 0 0 1-.5.5h-.64a.729.729 0 0 0 .031-.204h.609a.294.294 0 0 0 .295-.296v-.46a.754.754 0 0 0-.222-.535.754.754 0 0 0-.934-.107 1.36 1.36 0 0 0-.133-.158.954.954 0 0 1 .533-.162zM1.921 1.813a.614.614 0 0 1 .616.615.614.614 0 0 1-.616.616.614.614 0 0 1-.616-.616.614.614 0 0 1 .616-.615zm.284.33a.401.401 0 0 0-.686.285.401.401 0 0 0 .686.285.401.401 0 0 0 0-.57zM1.921 3.116c.197 0 .38.06.533.162a1.36 1.36 0 0 0-.133.158.75.75 0 0 0-.934.107.754.754 0 0 0-.223.534v.461a.294.294 0 0 0 .296.296h.609c0 .07.01.138.03.204h-.64a.498.498 0 0 1-.499-.5v-.46c0-.265.108-.506.282-.68a.958.958 0 0 1 .679-.282z" fill="#787276" opacity="1" data-original="#212121" class=""></path></g></g></svg>