<svg xmlns="http://www.w3.org/2000/svg" version="1.1" xmlns:xlink="http://www.w3.org/1999/xlink" width="512" height="512" x="0" y="0" viewBox="0 0 64 64" style="enable-background:new 0 0 512 512" xml:space="preserve"><g><path d="M48 7c-6.12 0-16.576 3.94-21.884 3.995l-10.853-2.96A1 1 0 0 0 14 9v16a1 1 0 0 0 1.263.965l10.853-2.96c3.137.033 8.263 1.461 12.578 2.486A2.989 2.989 0 0 1 41 28.406c-.091 2.625.35 6.099-.899 11.061-.682 2.723 1.258 5.254 3.899 5.509V56c0 1.323 2 1.324 2 0V44.95c1.722-.238 3.188-1.472 3.671-3.174C51.422 35.69 50.908 31.219 51 29.271a3 3 0 0 1 2.248-2.901C55.882 25.686 60 23.44 60 22V12c0-1.428-4.767-5-12-5zm-32 3.309 9 2.455v8.473l-9 2.455zm36.746 14.125A4.997 4.997 0 0 0 49 29.271c-.09 1.947.41 6.179-1.252 11.957-.636 2.244-3.034 1.702-3.328 1.773-1.532 0-2.782-1.445-2.38-3.045 1.322-5.249.866-8.93.96-11.548a4.98 4.98 0 0 0-3.843-4.86c-4.056-.967-8.856-2.279-12.157-2.507v-8.079C32.628 12.574 42.569 9 48 9c2.515 0 4.484.409 6 .949v14.093c-.391.141-.802.274-1.254.392zM58 21.623c-.3.312-.957.902-2 1.501V10.857c1.056.603 1.702 1.198 2 1.515zM10.414 11.677c-1.616 1.172-2.986-2.003-5.967-.022-1.102.73 0 2.396 1.105 1.666 1.819-1.204 3.139 2.07 6.033-.023 1.076-.778-.105-2.396-1.171-1.621zM10.414 16.677c-1.571 1.138-3.038-1.968-5.967-.022-1.102.73 0 2.396 1.105 1.666 1.826-1.207 3.136 2.072 6.033-.023 1.074-.776-.102-2.396-1.171-1.621zM10.414 21.677c-1.571 1.138-3.038-1.968-5.967-.022-1.102.73 0 2.396 1.105 1.666 1.819-1.204 3.139 2.07 6.033-.023 1.075-.777-.102-2.397-1.171-1.621z" fill="#787276" opacity="1" data-original="#000000"></path></g></svg>