<svg xmlns="http://www.w3.org/2000/svg" version="1.1" xmlns:xlink="http://www.w3.org/1999/xlink" width="512" height="512" x="0" y="0" viewBox="0 0 512 512" style="enable-background:new 0 0 512 512" xml:space="preserve" class=""><g><path d="M384.24 277.66c-11.83-43.02-14.84-84.98-17.48-122.1-.92-13-1.8-25.27-2.99-37.03-3.7-36.35-16.79-66.84-37.85-88.18C306.65 10.83 281.67.05 255.58 0h-.18c-25.76 0-50.38 10.49-69.34 29.56-20.79 20.9-33.78 50.95-37.58 86.89-1.31 12.37-2.23 25.36-3.21 39.12-2.64 37.12-5.66 79.08-17.49 122.09-18.35 10.28-32.43 25.37-32.43 52.26V470.15c0 14.5 7.01 27.32 19.27 35.18 6.94 4.43 14.64 6.66 22.4 6.66 5.93 0 11.89-1.3 17.6-3.93l85.12-39.23c6.66-3.07 12.19-7.65 16.29-13.23 4.09 5.58 9.62 10.16 16.27 13.23l85.13 39.23c5.71 2.63 11.68 3.93 17.61 3.93 7.77 0 15.47-2.24 22.41-6.68 12.23-7.85 19.24-20.67 19.24-35.17V329.92c-.02-26.89-14.1-41.98-32.45-52.26zM161.23 156.7c.97-13.61 1.89-26.47 3.17-38.57 7.46-70.56 51.05-102.11 91-102.11h.15c40.67.08 84.97 32.31 92.28 104.12 1.17 11.52 2.04 23.68 2.95 36.55 2.43 34.19 5.15 72.4 14.68 112.28-5.68-2.23-11.44-4.27-17.07-6.25-9.06-3.19-18.43-6.48-26.69-10.34-11.03-5.13-17.62-15.48-17.62-27.66v-9.58c3.47-3.08 6.77-6.52 9.86-10.31 14.78-18.14 23.2-42.28 23.7-67.99.04-2.18-.81-4.29-2.36-5.83s-3.62-2.39-5.84-2.33c-1.1.03-2.19.05-3.29.05-34.38 0-65.39-20.4-78.99-51.97a8.045 8.045 0 0 0-7.5-4.84 8.017 8.017 0 0 0-7.32 5.11c-7.98 20.62-27.39 36.63-49.44 40.8a8.021 8.021 0 0 0-6.5 7.24c-.25 3.14-.37 6.2-.37 9.36 0 32.2 12.52 60.87 31.89 79.04v11.24c0 12.19-6.59 22.53-17.63 27.67-8.25 3.85-17.62 7.15-26.68 10.33-5.63 1.98-11.39 4.01-17.07 6.25 9.53-39.86 12.26-78.07 14.69-112.26zm94.78 104.09-34.88-19.73c1.79-4.94 2.75-10.27 2.8-15.87 10.06 5.54 21.19 8.62 32.9 8.62 10.91 0 21.49-2.63 31.25-7.65.15 5.24 1.1 10.25 2.78 14.9zm45.51-66.08A70.915 70.915 0 0 1 291 205.2c-.01.01-.03.02-.04.03-10.18 8.17-21.93 12.56-34.13 12.56-13.1 0-25.29-5.04-35.5-13.68-.21-.19-.42-.37-.65-.54-17.27-14.99-28.64-40.39-28.64-69.14 0-.77.01-1.53.02-2.29 19.77-5.36 36.9-17.98 47.83-34.9a101.93 101.93 0 0 0 81.26 47.37c-1.8 19.07-8.64 36.62-19.63 50.1zm-88.46 60.19 30.76 17.4-17.08 21.01-26.31-28.13c4.91-2.75 9.16-6.23 12.63-10.28zm85.88 0c3.48 4.05 7.72 7.53 12.64 10.28l-26.31 28.12-17.07-21zm-187.59 75.02c0-20.33 10.9-31.5 26.82-39.76.09-.04.17-.09.26-.13 8.95-4.6 19.45-8.31 30.5-12.2 5.29-1.86 10.67-3.76 15.97-5.81l36.41 38.93a8.03 8.03 0 0 0 5.85 2.54h.28a8.036 8.036 0 0 0 5.94-2.95l22.64-27.84 22.62 27.84a7.985 7.985 0 0 0 5.94 2.95h.28c2.21 0 4.33-.92 5.85-2.54l36.41-38.93c5.29 2.04 10.68 3.95 15.97 5.81 10.99 3.87 21.44 7.55 30.35 12.12.17.1.34.18.51.27 15.87 8.25 26.72 19.42 26.72 39.7v70.9h-55.11V359.2c0-4.42-3.58-8.01-8.01-8.01s-8.01 3.58-8.01 8.01v61.77l-31.39-8.4c-8.3-9.55-10.18-26.3-12.18-43.97-.36-3.16-.71-6.34-1.11-9.52-2.1-16.64-12.01-22-20.57-21.46-3 .19-5.83 1.09-8.27 2.48a19.385 19.385 0 0 0-8.28-2.48c-8.56-.54-18.48 4.81-20.58 21.47-.4 3.17-.76 6.35-1.11 9.52-1.99 17.67-3.88 34.42-12.18 43.97l-31.39 8.4V359.2c0-4.42-3.58-8.01-8.01-8.01s-8.01 3.58-8.01 8.01v41.63h-55.11v-70.91zm121.67 124.37-85.12 39.23c-8.25 3.8-17.02 3.2-24.67-1.68-7.66-4.92-11.88-12.62-11.88-21.69v-53.31h55.11v14.56c0 2.49 1.16 4.84 3.13 6.35s4.54 2.02 6.95 1.38l43.65-11.68a8.05 8.05 0 0 0 3.53-2.01c13.52-13.23 15.92-34.49 18.23-55.05.35-3.1.7-6.21 1.09-9.31.67-5.31 2.3-7.18 3.06-7.42.55-.18 1.33.02 1.9.3v76.93c.01 10.32-5.6 19.07-14.98 23.4zm155.76 37.54c-7.65 4.89-16.42 5.49-24.68 1.69l-85.12-39.23c-9.37-4.31-14.96-13.06-14.96-23.4v-76.93c.56-.27 1.33-.47 1.88-.29.76.24 2.39 2.11 3.06 7.42.39 3.1.74 6.22 1.09 9.32 2.32 20.56 4.71 41.82 18.23 55.05.99.96 2.2 1.66 3.53 2.01l43.65 11.68c2.4.64 4.97.13 6.95-1.38s3.13-3.86 3.13-6.35v-14.56h55.11v53.31c0 9.05-4.22 16.75-11.87 21.66zM247.99 306.05c0-4.42 3.6-7.99 8.02-7.99 4.39 0 7.99 3.57 7.99 7.99s-3.6 7.99-7.99 7.99c-4.42 0-8.02-3.57-8.02-7.99zm141.27-115.71c7.26 3.89 13.16 9.79 17.09 17.12 2.07 3.78 5.87 6.03 10.17 6.03 4.29 0 8.19-2.34 10.19-6.12a41.52 41.52 0 0 1 16.97-16.99c3.8-1.99 6.16-5.9 6.16-10.21 0-4.3-2.25-8.1-6.09-10.2-7.26-3.89-13.16-9.78-17.02-16.96-2-3.82-5.91-6.19-10.21-6.19-4.29 0-8.09 2.26-10.2 6.11-3.9 7.25-9.8 13.14-17.06 17.03-.04.02-.09.05-.13.07-3.73 2.09-5.96 5.88-5.96 10.13-.01 4.26 2.33 8.16 6.09 10.18zm27.24-23.53c3.69 5.16 8.2 9.67 13.35 13.34a57.35 57.35 0 0 0-13.35 13.35 57.436 57.436 0 0 0-13.36-13.36c5.17-3.68 9.68-8.18 13.36-13.33zm69.04 122.42c-.04-.02-.09-.05-.13-.07a41.58 41.58 0 0 1-17.01-16.95c-1.99-3.8-5.92-6.17-10.24-6.17-4.31 0-8.22 2.36-10.17 6.08-3.9 7.25-9.8 13.14-17.12 17.07-3.78 2.07-6.03 5.87-6.03 10.17 0 4.29 2.34 8.18 6.11 10.18 7.26 3.92 13.15 9.82 17 16.98 1.99 3.8 5.9 6.16 10.21 6.16s8.22-2.34 10.21-6.11c3.9-7.23 9.8-13.12 17.04-17.03 3.76-2.01 6.1-5.91 6.1-10.18-.01-4.25-2.24-8.04-5.97-10.13zm-27.37 23.49c-3.69-5.16-8.2-9.67-13.37-13.37 5.16-3.68 9.66-8.18 13.36-13.36 3.7 5.16 8.2 9.67 13.37 13.36-5.16 3.7-9.67 8.21-13.36 13.37zM68.26 190.34a41.664 41.664 0 0 1 17.04 17.03c2 3.78 5.9 6.12 10.19 6.12 4.32 0 8.25-2.36 10.2-6.09a41.558 41.558 0 0 1 17.05-17.05c3.76-2.02 6.09-5.92 6.09-10.17s-2.23-8.04-5.96-10.13c-.04-.02-.09-.05-.13-.07-7.26-3.89-13.16-9.78-17.02-16.96-2-3.82-5.92-6.19-10.24-6.19-4.3 0-8.21 2.37-10.17 6.11-3.9 7.25-9.8 13.14-17.12 17.07-3.78 2.07-6.03 5.87-6.03 10.17.01 4.29 2.37 8.2 6.1 10.16zM95.5 166.8c3.69 5.16 8.2 9.66 13.36 13.35a57.202 57.202 0 0 0-13.35 13.36 57.628 57.628 0 0 0-13.36-13.36c5.14-3.68 9.65-8.18 13.35-13.35zM81.07 289.16a41.58 41.58 0 0 1-17.01-16.95 11.49 11.49 0 0 0-10.21-6.17c-4.3 0-8.1 2.25-10.2 6.08-3.9 7.25-9.8 13.14-17.06 17.03-.04.02-.09.05-.14.07-3.73 2.09-5.96 5.88-5.96 10.13 0 4.26 2.33 8.16 6.08 10.17a41.891 41.891 0 0 1 17.07 17.07c.01.02.02.03.03.05 2.07 3.78 5.87 6.03 10.17 6.03 4.31 0 8.22-2.36 10.17-6.08 3.89-7.23 9.79-13.13 17.05-17.05 3.77-2 6.11-5.89 6.11-10.18 0-4.3-2.26-8.1-6.1-10.2zm-27.23 23.56c-3.69-5.16-8.2-9.67-13.37-13.37 5.17-3.69 9.68-8.2 13.37-13.35 3.7 5.17 8.21 9.67 13.36 13.35-5.16 3.7-9.66 8.2-13.36 13.37zm194.15 14.36c0-4.42 3.6-8.02 8.02-8.02 4.39 0 7.99 3.6 7.99 8.02s-3.6 7.99-7.99 7.99c-4.42.01-8.02-3.57-8.02-7.99zm-95.37.46c0-4.42 3.58-8.01 8.01-8.01h31.12c4.42 0 8.01 3.58 8.01 8.01s-3.58 8.01-8.01 8.01h-31.12c-4.42-.01-8.01-3.59-8.01-8.01z" fill="#787276" opacity="1" data-original="#000000" class=""></path></g></svg>