<svg xmlns="http://www.w3.org/2000/svg" version="1.1" xmlns:xlink="http://www.w3.org/1999/xlink" width="512" height="512" x="0" y="0" viewBox="0 0 64 64" style="enable-background:new 0 0 512 512" xml:space="preserve" class=""><g><path d="M52 0H12a1 1 0 0 0-1 1v62a1 1 0 0 0 1 1h40a1 1 0 0 0 1-1V1a1 1 0 0 0-1-1zm-1 62h-2V8c0-2.206-1.794-4-4-4H35c-2.206 0-4 1.794-4 4v1.082c-2.758.423-5 2.537-5 4.918v2a1 1 0 0 0 1 1h10a1 1 0 0 0 1-1v-2c0-2.381-2.242-4.495-5-4.918V8c0-1.103.897-2 2-2h10c1.103 0 2 .897 2 2v25h-2a1 1 0 0 0-2 0v2a1 1 0 0 0 2 0h2v4h-2a1 1 0 0 0-2 0v2a1 1 0 0 0 2 0h2v21H13V2h38zM32 11c2.253 0 4 1.613 4 3v1h-8v-1c0-1.387 1.747-3 4-3z" fill="#787276" opacity="1" data-original="#000000" class=""></path><path d="M28 29a1 1 0 0 0 1-1v-8a1 1 0 0 0-2 0v8a1 1 0 0 0 1 1zM32 33a1 1 0 0 0 1-1V20a1 1 0 0 0-2 0v12a1 1 0 0 0 1 1zM36 28a1 1 0 0 0 1-1v-7a1 1 0 0 0-2 0v7a1 1 0 0 0 1 1zM28 33c.26 0 .52-.11.71-.29.18-.19.29-.45.29-.71s-.11-.52-.29-.71c-.37-.37-1.05-.37-1.42 0-.18.19-.29.45-.29.71s.11.52.29.71c.19.18.45.29.71.29zM32 37c.27 0 .52-.11.71-.29.18-.19.29-.44.29-.71 0-.26-.11-.52-.29-.71-.37-.37-1.04-.37-1.42 0-.18.19-.29.45-.29.71 0 .27.11.52.29.71.19.18.45.29.71.29zM36 33c.26 0 .52-.11.71-.29.18-.19.29-.45.29-.71s-.11-.52-.29-.71c-.37-.37-1.04-.37-1.42 0-.18.19-.29.45-.29.71s.11.52.29.71c.19.18.45.29.71.29z" fill="#787276" opacity="1" data-original="#000000" class=""></path></g></svg>