<svg xmlns="http://www.w3.org/2000/svg" version="1.1" xmlns:xlink="http://www.w3.org/1999/xlink" width="512" height="512" x="0" y="0" viewBox="0 0 128 128" style="enable-background:new 0 0 512 512" xml:space="preserve" class=""><g><path d="M124 116h-2V74a4 4 0 0 0-4-4h-1v-4a4 4 0 0 0-4-4H65a4 4 0 0 0-4 4v4h-9V56a2 2 0 0 0-2-2h-1.252l2.432-5.747a2 2 0 0 0-3.684-1.558L44.406 54H44v-7a2 2 0 0 0-4 0v7h-2a2 2 0 0 0-2 2v14h-5v-4a6.001 6.001 0 0 0-3.333-5.367v-8.55a8.917 8.917 0 0 0-17.834 0v4.667a2 2 0 1 0 4 0v-4.666a4.917 4.917 0 0 1 9.834 0v8.07A6.007 6.007 0 0 0 19 66v4h-7a4 4 0 0 0-4 4v42H4a4 4 0 0 0-4 4v4a4 4 0 0 0 4 4h120a4 4 0 0 0 4-4v-4a4 4 0 0 0-4-4Zm-6-42v42H88V74Zm-53-8h48v4H65Zm19 8v42H44V74ZM40 58h8v12h-8Zm-17 8a2 2 0 0 1 4 0v4h-4Zm-11 8h28v42H12Zm112 50H4v-4h120Z" fill="#787276" opacity="1" data-original="#000000" class=""></path><path d="M112 100a2 2 0 0 0 2-2v-6a2 2 0 0 0-4 0v6a2 2 0 0 0 2 2ZM18 90a2 2 0 0 0-2 2v6a2 2 0 0 0 4 0v-6a2 2 0 0 0-2-2ZM52 112h24a4 4 0 0 0 4-4V82a4 4 0 0 0-4-4H52a4 4 0 0 0-4 4v26a4 4 0 0 0 4 4Zm9-30h6v4h-6Zm-9 0h5v6a2 2 0 0 0 2 2h10a2 2 0 0 0 2-2v-6h5v26H52ZM71.5 60a2 2 0 0 0 0-4h-4a2 2 0 0 0 0 4ZM83.5 60a2 2 0 0 0 0-4h-4a2 2 0 0 0 0 4ZM98.5 60a2 2 0 0 0 0-4h-4a2 2 0 0 0 0 4ZM110.5 60a2 2 0 0 0 0-4h-4a2 2 0 0 0 0 4ZM52 15h4a2 2 0 0 0 0-4h-4a2 2 0 0 0 0 4ZM17 15h4a2 2 0 0 0 0-4h-4a2 2 0 0 0 0 4Z" fill="#787276" opacity="1" data-original="#000000" class=""></path><path d="M126 0H2a2 2 0 0 0-2 2v22a2 2 0 0 0 2 2h69a2 2 0 0 0 2-2c0-.043-.01-.083-.013-.125.003-.042.013-.082.013-.125V4h4v25.06a3.981 3.981 0 0 0-2.55 1.407l-6.546 8A4 4 0 0 0 71 45h36a4 4 0 0 0 3.096-6.533l-6.546-8a3.981 3.981 0 0 0-2.55-1.406V4h4v19.75a2 2 0 0 0 2 2h19a2 2 0 0 0 2-2V2a2 2 0 0 0-2-2ZM34 22H4V4h30Zm35 0H38V4h31ZM81 4h16v25H81Zm26 37H71l6.545-8h22.91Zm17-19.25h-15V4h15Z" fill="#787276" opacity="1" data-original="#000000" class=""></path></g></svg>