<svg xmlns="http://www.w3.org/2000/svg" version="1.1" xmlns:xlink="http://www.w3.org/1999/xlink" width="512" height="512" x="0" y="0" viewBox="0 0 512 512" style="enable-background:new 0 0 512 512" xml:space="preserve" class=""><g><path d="M256 63.72a191.71 191.71 0 0 0-135.72 56.21c-.07.07-.19 0-.26.11s0 .19-.11.26A191.69 191.69 0 0 0 63.72 256C63.72 362 150 448.28 256 448.28a191.7 191.7 0 0 0 135.69-56.18c.08-.08.21 0 .29-.12s0-.21.12-.29A191.7 191.7 0 0 0 448.28 256C448.28 150 362 63.72 256 63.72ZM436.51 256a179.64 179.64 0 0 1-49 123.21l-92.13-92.13H366a5.89 5.89 0 0 0 5.89-5.89v-50.38a5.89 5.89 0 0 0-5.89-5.88H233.26L132.78 124.46A179.68 179.68 0 0 1 256 75.49c99.53 0 180.51 80.98 180.51 180.51ZM245 236.7h115.1v38.61h-76.46Zm22 38.61H115V236.7h113.4ZM75.49 256a179.64 179.64 0 0 1 49-123.21l92.14 92.14H109.07a5.88 5.88 0 0 0-5.88 5.88v50.38a5.89 5.89 0 0 0 5.88 5.89h169.67l100.47 100.47a179.64 179.64 0 0 1-123.21 49C156.47 436.51 75.49 355.53 75.49 256Z" fill="#787276" opacity="1" data-original="#000000" class=""></path><path d="M256 30.14C131.46 30.14 30.14 131.46 30.14 256S131.46 481.86 256 481.86 481.86 380.54 481.86 256 380.54 30.14 256 30.14Zm0 440c-118 0-214.09-96-214.09-214.09S138 41.91 256 41.91 470.09 138 470.09 256 374.05 470.09 256 470.09Z" fill="#787276" opacity="1" data-original="#000000" class=""></path><path d="M391.18 224.93a5.89 5.89 0 0 0-5.89 5.88v50.38a5.89 5.89 0 0 0 11.78 0v-50.38a5.89 5.89 0 0 0-5.89-5.88ZM375.23 182.51a10.08 10.08 0 0 1 10.06 10.07v14.27a5.89 5.89 0 1 0 11.78 0v-14.27a21.87 21.87 0 0 0-21.84-21.84 10.08 10.08 0 0 1-10.07-10.07v-15.95a5.89 5.89 0 0 0-11.78 0v15.95a21.86 21.86 0 0 0 21.85 21.84Z" fill="#787276" opacity="1" data-original="#000000" class=""></path></g></svg>