<svg xmlns="http://www.w3.org/2000/svg" version="1.1" xmlns:xlink="http://www.w3.org/1999/xlink" width="512" height="512" x="0" y="0" viewBox="0 0 64 64" style="enable-background:new 0 0 512 512" xml:space="preserve" class=""><g><path d="M32 15.986a1 1 0 0 0-1 1v3.2a1 1 0 0 0 2 0v-3.2a1 1 0 0 0-1-1zM20.833 15.671a1 1 0 0 0-.541 1.307l2.196 5.303a1 1 0 0 0 1.848-.766l-2.196-5.303a1.003 1.003 0 0 0-1.307-.54zM15.42 27.465a1 1 0 0 0 1.415-1.414l-2.265-2.263a1 1 0 0 0-1.414 1.414zM6.347 30.922a1 1 0 0 0-.766 1.848l5.304 2.197a1 1 0 1 0 .765-1.847zM59 42.71a5.895 5.895 0 0 1-3.366-.952 8.417 8.417 0 0 0-8.69 0 6.43 6.43 0 0 1-6.734 0 8.419 8.419 0 0 0-8.69 0 5.906 5.906 0 0 1-3.37.952 5.898 5.898 0 0 1-3.369-.953 7.837 7.837 0 0 0-4.344-1.207 7.837 7.837 0 0 0-4.348 1.208 5.91 5.91 0 0 1-3.37.952 5.902 5.902 0 0 1-3.371-.953A7.846 7.846 0 0 0 5 40.55a1 1 0 0 0 0 2 5.902 5.902 0 0 1 3.371.953 7.846 7.846 0 0 0 4.348 1.207 7.845 7.845 0 0 0 4.346-1.207 5.902 5.902 0 0 1 3.372-.953 5.905 5.905 0 0 1 3.368.952 7.832 7.832 0 0 0 4.345 1.208 7.832 7.832 0 0 0 4.346-1.208 6.435 6.435 0 0 1 6.737 0 8.417 8.417 0 0 0 8.69 0 6.426 6.426 0 0 1 6.732 0A7.831 7.831 0 0 0 59 44.71a1 1 0 0 0 0-2zM55.866 50.134a5.114 5.114 0 0 1-2.92-.827 7.555 7.555 0 0 0-7.792 0 5.57 5.57 0 0 1-5.84 0 7.56 7.56 0 0 0-7.795 0 5.573 5.573 0 0 1-5.843 0 7.024 7.024 0 0 0-3.897-1.082 7.036 7.036 0 0 0-3.9 1.082 5.13 5.13 0 0 1-2.923.827 5.13 5.13 0 0 1-2.923-.827 7.033 7.033 0 0 0-3.9-1.082 1 1 0 1 0 0 2 5.13 5.13 0 0 1 2.924.827 7.033 7.033 0 0 0 3.899 1.082 7.037 7.037 0 0 0 3.9-1.082 5.13 5.13 0 0 1 2.923-.827 5.114 5.114 0 0 1 2.92.827 7.026 7.026 0 0 0 3.898 1.082 7.03 7.03 0 0 0 3.898-1.082 5.57 5.57 0 0 1 5.842 0 7.559 7.559 0 0 0 7.794 0 5.564 5.564 0 0 1 5.838 0 7.03 7.03 0 0 0 3.897 1.082 1 1 0 0 0 0-2zM13.743 58.602a6.22 6.22 0 0 0 3.451.957 6.221 6.221 0 0 0 3.452-.957 4.29 4.29 0 0 1 2.475-.702 4.277 4.277 0 0 1 2.472.702 6.7 6.7 0 0 0 6.901 0 4.708 4.708 0 0 1 4.947 0 6.694 6.694 0 0 0 6.899 0 4.7 4.7 0 0 1 4.942 0 6.217 6.217 0 0 0 3.45.957 1 1 0 0 0 0-2 4.277 4.277 0 0 1-2.471-.702 6.696 6.696 0 0 0-6.9 0 4.7 4.7 0 0 1-4.942 0 6.7 6.7 0 0 0-6.901 0 4.708 4.708 0 0 1-4.948 0 6.213 6.213 0 0 0-3.449-.957 6.22 6.22 0 0 0-3.451.957 4.293 4.293 0 0 1-2.476.702 4.29 4.29 0 0 1-2.474-.702 6.221 6.221 0 0 0-3.452-.957 1 1 0 1 0 0 2 4.293 4.293 0 0 1 2.475.702zM52.732 35.043a.999.999 0 0 0 .383-.076l5.304-2.197a1 1 0 0 0-.766-1.848L52.35 33.12a1 1 0 0 0 .382 1.923zM50.844 23.788a1 1 0 0 0-1.414 0l-2.265 2.263a1 1 0 1 0 1.414 1.414l2.265-2.263a1 1 0 0 0 0-1.414zM40.588 22.898a1 1 0 0 0 .924-.617l2.196-5.303a1 1 0 0 0-1.848-.766l-2.196 5.303a1 1 0 0 0 .924 1.383zM15.142 39.748a1 1 0 0 0 1.199-.75 16.074 16.074 0 0 1 31.318 0 1 1 0 0 0 1.95-.45 18.075 18.075 0 0 0-35.217 0 1 1 0 0 0 .75 1.2zM35.542 6.392a1 1 0 0 0-.613-1.904A5.754 5.754 0 0 0 31.597 7.8a9.11 9.11 0 0 0-6.411-2.168 1 1 0 1 0 .248 1.985 7.47 7.47 0 0 1 5.885 2.653.998.998 0 0 0 .73.316 1.001 1.001 0 0 0 .981-.802c.006-.029.583-2.772 2.512-3.393zM51.763 12.422c.006-.027.583-2.771 2.51-3.391a1 1 0 1 0-.613-1.905 5.749 5.749 0 0 0-3.332 3.314 9.13 9.13 0 0 0-6.411-2.168 1 1 0 0 0 .248 1.984 7.471 7.471 0 0 1 5.887 2.654.998.998 0 0 0 .73.316 1.001 1.001 0 0 0 .98-.804z" fill="#787272" opacity="1" data-original="#000000" class=""></path></g></svg>