<svg xmlns="http://www.w3.org/2000/svg" version="1.1" xmlns:xlink="http://www.w3.org/1999/xlink" width="512" height="512" x="0" y="0" viewBox="0 0 1024 1024" style="enable-background:new 0 0 512 512" xml:space="preserve" class=""><g><path d="M374.3 318.3V501.4c0 .7-.4 2.9.2.1-.2.9-.5 1.7-.7 2.6 0-.2 1-2.1.3-.5-.4.8-.9 1.5-1.3 2.3-1.2 1.9 1.5-1.6-.1 0-.3.3-2.3 2.1-.9 1 1.4-1.2-1.4.8-1.7 1-.7.5-2.4.6-.1 0-.9.2-1.7.5-2.6.7.8-.2 2.6-.1-.1-.2H164.9c3.4.1-2.3-.7-.8-.2 1.7.6-3.7-2.4-2.4-1.3 1.4 1.1-.6-.7-.9-1-1.1-1.1.8 1.8-.4-.6-.4-.8-.9-1.5-1.2-2.3.8 1.9-.1.5.2-.2-.1.1-.2-3.7-.1 0 0-.4-.1-1 0-1.4v-26.6l-15 15c16.1 0 36.7 3.4 48.9-9.5 9.7-10.2 8.6-23.1 8.6-36V318.4l-15 15h202.7c7.8 0 15.4-6.9 15-15s-6.6-15-15-15H186.8c-8.1 0-15 6.9-15 15v67.8c0 24.2.1 48.4 0 72.6V459.7c0 2-.6-1.8-.1-.1.5 1.8-.6-.8.3-.6-.8 1.3-.9 1.4-.3.6.5-.7.5-.7-.1-.1-1 1.6.3-.7.6-.3-.4.2-.7.4-1.1.7.4-.2.8-.3 1.2-.5 0 0-2.5.6-.6.3 1.8-.3-.4 0-.7 0H144.3c-8.1 0-15 6.9-15 15V499c0 17.2 9.5 32.5 26.3 37.8 9.5 3 21.5 1.6 31.3 1.6h169.8c3.4 0 6.7.1 10.1 0 15.4-.3 28.9-8.9 34.8-23.3 4.4-10.7 2.8-24.1 2.8-35.4v-57.9c0-33.9.4-67.7 0-101.6v-1.9c0-7.8-6.9-15.4-15-15-8.2.4-15.1 6.6-15.1 15z" fill="#787276" opacity="1" data-original="#000000" class=""></path><path d="M634.4 508.5H411.4c-.5 0-3.5-.1-1.4 0s.6-.4 0-.1c-.7.3-2.1-.6-.2.2-.8-.3-1.5-.8-2.3-1.2-.7-.3-2-1.7-.1 0-.5-.4-1-.9-1.4-1.4-1.4-1.7 1.1 1.9-.1 0-.3-.6-.7-1.1-1-1.7-1.5-2.4-.2-.7 0-.1-.1-.4-.8-3.9-.6-2 .1 1.3.1-1.4.1-2.1-.2-29.9 0-59.8 0-89.7 0-30.1.9-60.4 0-90.5v-1.6l-15 15h245.1l-15-15v205.1c0 7.8 6.9 15.4 15 15s15-6.6 15-15V318.3c0-8.1-6.9-15-15-15H389.4c-8.1 0-15 6.9-15 15v179c0 5.4.1 10.9 2 16.1 5.5 15.1 19.2 24.7 35.2 25.1 8.1.2 16.2 0 24.3 0h113.3c27.9 0 56 .6 83.9 0h1.4c7.8 0 15.4-6.9 15-15-.5-8.2-6.7-15-15.1-15zM171.7 318.3v67.8c0 24.2.1 48.4 0 72.6 0 .6-.3 2.5 0 .9.3-2-.3.6-.3.6.1-.2.2-.4.2-.6.3-.8.3-.8-.1-.1-.1.2-.2.4-.3.5.3-.3.5-.7.8-1l-.9.9c.3-.3.7-.5 1-.8-.2.1-.4.2-.5.3-.9.5-.7.5.7-.1.1.2-2.6.5-.6.3 1.8-.1-.5 0-.7 0h-53.6c-.5 0-1 0-1.5-.1 2.4.3.1-.3.1-.3.4.2.8.3 1.2.5-.4-.2-.7-.4-1.1-.7.1-.1 1.9 1.7.6.3-1.3-1.3.4.5.3.6-.1-.2-.2-.4-.3-.5-.4-.8-.4-.7-.1.1.1-.1 0 1-.1-.6.2 2 0 1 0-.2V399c0-26.3 1-52.9 0-79.2v-1.5l-15 15h85.2c7.8 0 15.4-6.9 15-15s-6.6-15-15-15h-85.2c-8.1 0-15 6.9-15 15V439.5c0 9-1.2 19.3 1.2 28 3.8 13.7 16.8 22 30.5 22.1 6.5.1 13 0 19.5 0h25.1c7.7 0 15 .2 22.2-3.4 10.7-5.3 16.6-16.4 16.7-28.1V404.3c0-28.2.4-56.3 0-84.5v-1.6c0-7.8-6.9-15.4-15-15-8.1.5-15 6.7-15 15.1z" fill="#787276" opacity="1" data-original="#000000" class=""></path><path d="M907.5 510.3v253.3c-.1 1.8-.1 1.8.1 0-.2.9-.4 1.7-.6 2.6-.6 3.6 1.4-1.9-.4 1.2-.3.6-3.3 4.8-1.2 2.3-.8 1-1.8 1.8-2.6 2.8-1.3 1.1-1.3 1.1 0 0-.7.5-1.4.9-2.2 1.4-.6.4-4.2 1.5-1.1.6-1.3.4-2.5.7-3.8 1 3.1-.7-.7 0-1.7 0-5.6.1-11.1 0-16.7 0h-39.4l15 15v-211c0-28.5 1.9-58.1-1.9-86.5-8.8-65.9-47.3-125.1-104.6-159.2-29-17.2-61.8-27.2-95.4-29.8-8-.6-15.9-.6-23.9-.6H101.5l15 15v-57.9c0-2.7-.6.6.1-.6.4-.8 1.5-4.7.3-2 .6-1.4 1.4-2.7 2.2-3.9.9-1.4-.3.3-.5.5.5-.6 1.1-1.3 1.7-1.9s1.2-1.2 1.9-1.7c-1.1.9-1.2.7.1.1.8-.4 5.1-2.1 2.2-1.3 1.3-.4 2.5-.7 3.8-1-2.8.8.4 0 1.4 0 11.6-.2 23.2 0 34.8 0H645.7c11.6 0 23.2.8 34.8 2.2 3 .4.7.1.1 0 .7.1 1.4.2 2 .3 1.6.2 3.2.5 4.7.7 3.6.6 7.2 1.3 10.7 2 6.4 1.3 12.7 2.9 19 4.6 6.4 1.8 12.8 3.9 19.1 6.2l8.7 3.3c.8.3 4.6 1.9 1.9.8 1.6.7 3.2 1.4 4.9 2.1 11.8 5.3 23.3 11.5 34.2 18.4 5.4 3.4 10.6 7 15.7 10.7 1.4 1 2.8 2.1 4.2 3.1-2.2-1.7.9.7 1.6 1.3 2.6 2 5.1 4.1 7.6 6.2 9.8 8.4 19 17.4 27.5 27 2 2.3 4 4.6 6 7 1 1.2 1.9 2.4 2.9 3.6.6.8 3.4 4.3 1.7 2.1 4 5.2 7.8 10.6 11.4 16 7.1 10.8 13.4 22.2 19 33.9 1.3 2.8 2.6 5.6 3.8 8.5.7 1.6-.1-.3-.2-.5.3.8.7 1.6 1 2.5.7 1.6 1.3 3.3 1.9 5 2.4 6.2 4.5 12.6 6.5 19 3.8 12.5 6.6 25.3 8.6 38.3.1.9.3 1.8.4 2.7-.1-.6-.4-2.9 0 .1.2 1.4.3 2.7.5 4.1.4 3.4.7 6.9.9 10.3.5 6.6.7 13.4.7 20.1 0 7.8 6.9 15.4 15 15s15-6.6 15-15c-.1-55.7-16.1-111.2-46.5-158-29.6-45.6-71.8-83-121.1-106-39.7-18.4-82.5-27.7-126.2-27.7H176.9c-15.2 0-30.4-.1-45.6 0-20.6.1-39.8 13.6-43.8 34.5-1.3 6.9-.9 13.9-.9 20.9v44.3c0 8.1 6.9 15 15 15H633.4c3.1 0 6.2 0 9.2.1 4.2.1 8.4.4 12.5.8 1.8.2 3.7.4 5.5.6.6.1 2.9.4.1 0 1.4.2 2.7.4 4.1.6 7.8 1.3 15.5 3 23.2 5.2 3.7 1.1 7.3 2.2 10.9 3.5 1.7.6 3.4 1.2 5 1.8.8.3 1.7.6 2.5 1 .3.1 4.3 1.8 1.3.5 7.1 3 14 6.5 20.7 10.3s13.1 8 19.3 12.6c.5.4 4.6 3.5 2.2 1.6 1.5 1.2 3.1 2.5 4.6 3.7 3 2.5 6 5.1 8.8 7.8 5.6 5.2 10.9 10.8 15.8 16.6 1.1 1.3 2.2 2.7 3.3 4-.1-.1 2.6 3.3 1.3 1.6-1.1-1.4.6.8.8 1.1 2.4 3.2 4.6 6.4 6.8 9.7 4.3 6.4 8.1 13.1 11.6 19.9 1.7 3.4 3.3 6.8 4.8 10.2.3.7 1.4 3.4.3.7.3.8.7 1.6 1 2.5.8 2.1 1.6 4.1 2.4 6.2 2.6 7.2 4.8 14.5 6.5 21.9.9 4 1.8 8 2.4 12l.9 5.4c-.1-.6-.3-2.9 0 .1.2 1.4.3 2.7.5 4.1.8 7.6 1.1 15.2 1.1 22.8V790c0 8.1 6.9 15 15 15H873c14.7 0 30.8 1.8 43.9-6.3 13.9-8.7 20.7-23.4 20.7-39.5V510.1c0-7.8-6.9-15.4-15-15-8.2.6-15.1 6.8-15.1 15.2z" fill="#787276" opacity="1" data-original="#000000" class=""></path><path d="M680.8 732.6c-8.4 0-16.9.1-25.3 0h-.7c-2.8.1-.9 0-.1.2.1 0-4.1-1.1-2-.4 1.7.6-.8-.4-1.2-.6-.8-.4-2.7-2.2-.7-.3l-1.8-1.8c1.7 1.8-.1-.3-.6-1.2-.5-.7-.6-2.4 0-.1-.2-.9-.5-1.7-.7-2.6.5 2.7.1.6.2-.1v-.8c-.1-12 0-24 0-35.9V522.4l-15 15H838l-15-15v183.1l15-15H716.3c-8.9 0-20.1-1.4-28.7 1.4-9.5 3.1-17 10.6-20.1 20.1-1.4 4.3-1.4 8.8-1.4 13.2v22.7c0 7.8 6.9 15.4 15 15s15-6.6 15-15v-26.5c0-.5 0-1 .1-1.5-.1.5.3 2.2.1.8-.3-1.9.4.8-.3.6-.2 0 1.6-2 .3-.6-1.2 1.4.5-.4.5-.4-.3.3-.7.5-1 .8.4-.2.7-.4 1.1-.7.1.5-2.5.3 0 .1-2.6.3 0 0 1.1 0H838.1c8.1 0 15-6.9 15-15V522.4c0-8.1-6.9-15-15-15H633c-8.1 0-15 6.9-15 15v96.2c0 35.5-.4 71 0 106.4.2 19.9 14.6 35.6 34.3 37.6 9.5 1 19.3.2 28.8.2 7.8 0 15.4-6.9 15-15-.6-8.4-6.9-15.2-15.3-15.2z" fill="#787276" opacity="1" data-original="#000000" class=""></path><path d="M837.8 775.3h-68.1c-24.3 0-48.6.1-72.9 0-.6 0-2.5-.3-.9 0 2 .3-.6-.3-.6-.3.2.1.4.2.6.2.8.3.8.3.1-.1-.2-.1-.4-.2-.5-.3.3.3.7.5 1 .8l-.9-.9c.3.3.5.7.8 1-.1-.2-.2-.4-.3-.5-.5-.9-.5-.7.1.7-.2.1-.5-2.6-.3-.6.1 1.8 0-.5 0-.7V721c0-.5 0-1 .1-1.5-.3 2.4.3.1.3.1-.2.4-.3.8-.5 1.2.2-.4.4-.7.7-1.1.1.1-1.7 1.9-.3.6 1.3-1.3-.5.4-.6.3.2-.1.4-.2.5-.3.8-.4.7-.4-.1-.1.1.1-1 0 .6-.2-2 .2-1 0 .2 0h60c26.5 0 53.1.8 79.6 0h1.5l-15-15v85.2c0 7.8 6.9 15.4 15 15s15-6.6 15-15V705c0-8.1-6.9-15-15-15H716.2c-9 0-19.3-1.2-28.1 1.2-13.7 3.8-22 16.8-22.1 30.5-.1 6.5 0 13 0 19.5v25.1c0 7.7-.2 15 3.4 22.2 5.3 10.7 16.4 16.6 28.1 16.7h54c28.3 0 56.6.4 84.9 0h1.6c7.8 0 15.4-6.9 15-15-.5-8-6.8-14.9-15.2-14.9z" fill="#787276" opacity="1" data-original="#000000" class=""></path></g></svg>