<svg xmlns="http://www.w3.org/2000/svg" version="1.1" xmlns:xlink="http://www.w3.org/1999/xlink" width="512" height="512" x="0" y="0" viewBox="0 0 512 512" style="enable-background:new 0 0 512 512" xml:space="preserve" class=""><g><path d="M7.5 179.5h497M7.5 369.5v135h497v-135M504.5 239.5c-20.71 0-20.71 13.805-41.42 13.805S442.37 239.5 421.66 239.5s-20.71 13.805-41.42 13.805-20.71-13.805-41.42-13.805c-20.707 0-20.707 13.805-41.414 13.805-20.708 0-20.708-13.805-41.415-13.805s-20.707 13.805-41.414 13.805c-20.708 0-20.708-13.805-41.415-13.805-20.71 0-20.71 13.805-41.42 13.805-20.708 0-20.708-13.805-41.415-13.805s-20.707 13.805-41.414 13.805c-20.708 0-20.708-13.805-41.415-13.805M504.5 299.5c-20.71 0-20.71 13.805-41.42 13.805S442.37 299.5 421.66 299.5s-20.71 13.805-41.42 13.805-20.71-13.805-41.42-13.805c-20.707 0-20.707 13.805-41.414 13.805-20.708 0-20.708-13.805-41.415-13.805s-20.707 13.805-41.414 13.805c-20.708 0-20.708-13.805-41.415-13.805-20.71 0-20.71 13.805-41.42 13.805-20.708 0-20.708-13.805-41.415-13.805s-20.707 13.805-41.414 13.805c-20.708 0-20.708-13.805-41.415-13.805" style="stroke-width:15;stroke-linecap:round;stroke-linejoin:round;stroke-miterlimit:10;" fill="none" stroke="#787276" stroke-width="15" stroke-linecap="round" stroke-linejoin="round" stroke-miterlimit="10" data-original="#000000" opacity="1" class=""></path><path d="M504.5 414.5H312.421c-8.284 0-15 6.716-15 15s6.716 15 15 15h67.835c8.284 0 15 6.716 15 15 0 8.284-6.716 15-15 15H131.744c-8.284 0-15-6.716-15-15 0-8.284 6.716-15 15-15h67.835c8.284 0 15-6.716 15-15s-6.716-15-15-15H7.5M504.5 339.5v-190H7.5v190M7.5 22.5v82c0 8.284 6.716 15 15 15 8.284 0 15-6.716 15-15v-82c0-8.284-6.716-15-15-15-8.284 0-15 6.716-15 15zM504.485 22.5v82c0 8.284-6.716 15-15 15s-15-6.716-15-15v-82c0-8.284 6.716-15 15-15s15 6.716 15 15z" style="stroke-width:15;stroke-linecap:round;stroke-linejoin:round;stroke-miterlimit:10;" fill="none" stroke="#787276" stroke-width="15" stroke-linecap="round" stroke-linejoin="round" stroke-miterlimit="10" data-original="#000000" opacity="1" class=""></path><path d="m470.092 52.893-41-41c-5.858-5.858-15.355-5.858-21.213 0-5.858 5.858-5.858 15.355 0 21.213L423.272 48.5H88.713l15.393-15.393c5.858-5.858 5.858-15.355 0-21.213-5.858-5.858-15.355-5.858-21.213 0l-41 41c-5.858 5.858-5.858 15.355 0 21.213l41 41c5.858 5.858 15.355 5.858 21.213 0 5.858-5.858 5.858-15.355 0-21.213L88.713 78.5h334.559l-15.394 15.394c-5.858 5.858-5.858 15.355 0 21.213 5.858 5.858 15.355 5.858 21.213 0l41-41c5.859-5.858 5.859-15.356.001-21.214z" style="stroke-width:15;stroke-linecap:round;stroke-linejoin:round;stroke-miterlimit:10;" fill="none" stroke="#787276" stroke-width="15" stroke-linecap="round" stroke-linejoin="round" stroke-miterlimit="10" data-original="#000000" opacity="1" class=""></path></g></svg>