<svg xmlns="http://www.w3.org/2000/svg" version="1.1" xmlns:xlink="http://www.w3.org/1999/xlink" width="512" height="512" x="0" y="0" viewBox="0 0 609.629 609.629" style="enable-background:new 0 0 512 512" xml:space="preserve" class=""><g><path d="M579.142 419.214V354.96a30.298 30.298 0 0 0-10.963-23.44l-47.967-40.042a30.484 30.484 0 0 0-19.508-7.031h-5.69l-54.185-162.566h16.389c16.834 0 30.481-13.647 30.481-30.481s-13.647-30.481-30.481-30.481H101.604c-22.446 0-40.642 18.196-40.642 40.642 0 11.223 9.098 20.321 20.321 20.321h10.16v81.283h-20.32c-16.834 0-30.481 13.647-30.481 30.481v83.153a30.483 30.483 0 0 0-20.321 28.612v12.03A30.477 30.477 0 0 0 0 386.051v60.962c0 16.834 13.647 30.481 30.481 30.481 0 39.28 31.843 71.123 71.123 71.123s71.123-31.843 71.123-71.123h294.651c-.041 33.771 23.671 62.914 56.744 69.741s66.388-10.545 79.722-41.571 3.011-67.152-24.702-86.45zm-104.52-131.719a30.422 30.422 0 0 0-17.019 23.603l-82.543-82.533 18.218-18.218c3.85-3.987 3.795-10.324-.124-14.243s-10.256-3.974-14.243-.124l-50.802 50.802a10.16 10.16 0 1 0 14.366 14.366l18.218-18.218 96.524 96.524v46.595c0 11.223-9.098 20.321-20.321 20.321h-81.283c-11.223 0-20.321-9.098-20.321-20.321v-60.962c0-22.446-18.196-40.642-40.642-40.642h-81.283c-5.611 0-10.16-4.549-10.16-10.16v-60.962c0-16.834-13.647-30.481-30.481-30.481h-20.321V121.88H419.42zm-261.254 17.273h81.283c11.223 0 20.321 9.098 20.321 20.321v18.492l-162.566-27.098V203.164h20.321c5.611 0 10.16 4.549 10.16 10.16v60.962c0 16.835 13.647 30.482 30.481 30.482zM81.283 101.56c0-11.223 9.098-20.321 20.321-20.321h355.613c5.611 0 10.16 4.549 10.16 10.16s-4.549 10.16-10.16 10.16H81.283zm50.802 20.321v193.047h-20.321V121.881zM60.962 233.645c0-5.611 4.549-10.16 10.16-10.16h20.321v20.321H60.962zm0 30.481h30.481v50.802H60.962zm-20.32 81.283c0-5.611 4.549-10.16 10.16-10.16h90.6l173.57 28.927v21.875a40.224 40.224 0 0 0 5.649 20.321H202.395a42.37 42.37 0 0 1-36.161-20.402 61.657 61.657 0 0 0-22.851-22.272 62.573 62.573 0 0 0-30.806-8.128H40.642zm60.962 182.887c-28.057 0-50.802-22.745-50.802-50.802s22.745-50.802 50.802-50.802 50.802 22.745 50.802 50.802c-.034 28.043-22.759 50.768-50.802 50.802zm368.822-71.123H169.678c-9.078-30.003-36.729-50.524-68.075-50.524s-58.996 20.522-68.075 50.524H30.48c-5.611 0-10.16-4.549-10.16-10.16v-60.962c0-5.611 4.549-10.16 10.16-10.16h82.096a42.394 42.394 0 0 1 20.808 5.487 41.45 41.45 0 0 1 15.393 14.987 62.833 62.833 0 0 0 53.616 30.329h234.502c22.446 0 40.642-18.196 40.642-40.642v-71.123c0-5.611 4.549-10.16 10.16-10.16h13.005c2.367 0 4.66.819 6.492 2.317l48.008 40.073a9.946 9.946 0 0 1 3.617 7.803v54.46a70.965 70.965 0 0 0-54.104 5.539 70.951 70.951 0 0 0-34.289 42.212zm68.074 71.123c-28.057 0-50.802-22.745-50.802-50.802s22.745-50.802 50.802-50.802 50.802 22.745 50.802 50.802c-.034 28.043-22.759 50.768-50.802 50.802z" fill="#787276" opacity="1" data-original="#000000" class=""></path><path d="M538.5 447.013c-16.834 0-30.481 13.647-30.481 30.481s13.647 30.481 30.481 30.481 30.481-13.647 30.481-30.481-13.647-30.481-30.481-30.481zm0 40.641c-5.611 0-10.16-4.549-10.16-10.16s4.549-10.16 10.16-10.16 10.16 4.549 10.16 10.16-4.549 10.16-10.16 10.16zM101.604 447.013c-16.834 0-30.481 13.647-30.481 30.481s13.647 30.481 30.481 30.481 30.481-13.647 30.481-30.481-13.647-30.481-30.481-30.481zm0 40.641c-5.611 0-10.16-4.549-10.16-10.16s4.549-10.16 10.16-10.16 10.16 4.549 10.16 10.16-4.549 10.16-10.16 10.16z" fill="#787276" opacity="1" data-original="#000000" class=""></path></g></svg>