<svg xmlns="http://www.w3.org/2000/svg" version="1.1" xmlns:xlink="http://www.w3.org/1999/xlink" width="512" height="512" x="0" y="0" viewBox="0 0 512.001 512.001" style="enable-background:new 0 0 512 512" xml:space="preserve"><g><path d="m404.464 504.028-2.383-37.723c-.918-14.497-6.124-28.202-15.055-39.636a7.497 7.497 0 0 0-10.528-1.293 7.5 7.5 0 0 0-1.293 10.527c7.063 9.041 11.179 19.882 11.906 31.347l1.877 29.75H123.013l1.877-29.746c.964-15.203 7.803-29.101 19.256-39.134a56.96 56.96 0 0 1 23.78-12.393l40.505-10.011a12.008 12.008 0 0 0 9.148-11.671v-28.902c12.991 5.212 26.306 8.031 38.422 8.031 11.953 0 25.108-2.754 37.962-7.848v28.599a12.01 12.01 0 0 0 9.142 11.682l40.981 10.122a56.632 56.632 0 0 1 10.195 3.575 7.459 7.459 0 0 0 3.14.693 7.5 7.5 0 0 0 3.149-14.31 71.537 71.537 0 0 0-12.896-4.522l-38.71-9.562V358.22c22.201-12.322 40.546-30.886 51.958-52.701a7.5 7.5 0 0 0-3.169-10.122 7.496 7.496 0 0 0-10.122 3.169c-10.676 20.409-28.282 37.626-49.574 48.478-14.076 7.178-29.011 11.131-42.055 11.131-13.204 0-28.29-4.032-42.491-11.358-20.614-10.604-37.822-27.284-48.454-46.968a7.498 7.498 0 0 0-10.163-3.034 7.499 7.499 0 0 0-3.034 10.163c11.346 21.006 29.254 38.967 50.721 50.986v33.748l-38.248 9.452a71.979 71.979 0 0 0-30.067 15.672c-14.48 12.684-23.125 30.252-24.344 49.471l-2.38 37.722a7.499 7.499 0 0 0 7.485 7.972h281.952a7.5 7.5 0 0 0 7.485-7.973z" fill="#787276" opacity="1" data-original="#000000"></path><path d="M476.765 117.484a7.5 7.5 0 0 0-7.5 7.5v153.827c0 52.609-55.661 79.299-88.841 90.526-17.64 5.971-26.648 2.801-28.398-.788-1.042-2.135.297-4.986 3.257-6.933 12.776-8.4 64.39-47.692 64.39-72.422 0-11.17-1.064-21.889-1.957-28.913a12.81 12.81 0 0 0-6.443-9.537 12.825 12.825 0 0 0-11.516-.474l-40.048 18.199a7.094 7.094 0 0 1-8.301-1.776 7.068 7.068 0 0 1-1.755-5.342 7.069 7.069 0 0 1 2.662-4.954c7.144-5.692 13.133-10.193 18.157-13.77.058-.043.12-.082.176-.126 11.899-8.456 18.291-11.638 21.413-12.83.148-.051.295-.102.439-.162 1.436-.514 2.051-.553 2.135-.556h24.56a7.5 7.5 0 0 0 7.5-7.5v-92.204a7.5 7.5 0 0 0-7.5-7.5 7.5 7.5 0 0 0-7.5 7.5v84.703h-11.953c2.057-8.797 3.863-20.076 3.344-31.34-.734-15.947-6.102-28.05-15.594-35.312-.809-26.493-7.739-47.999-20.626-63.972-9.187-11.387-21.125-19.706-35.515-24.796-4.654-24.05-23.764-45.442-48.925-54.18C260.745-3.176 216.11-7.42 160.754 48.758a7.5 7.5 0 0 0 .078 10.605 7.498 7.498 0 0 0 10.606-.078c49.567-50.302 87.729-47.129 106.064-40.763a61.877 61.877 0 0 1 14.131 7.025 61.192 61.192 0 0 0-14.494 1.268c-15.373 3.234-30.235 11.771-45.438 26.101a7.502 7.502 0 0 0 5.145 12.958 7.477 7.477 0 0 0 5.143-2.042c13.137-12.382 25.645-19.689 38.236-22.338 10.821-2.272 22.055-.591 30.447 4.477 3.678 6.461 5.849 13.116 6.506 19.09.245 2.17.308 4.297.186 6.33-.163 2.781-.663 5.602-1.499 8.459-2.63 8.988-8.589 18.345-17.815 28.006-7.443 7.795-16.164 14.922-24.861 21.221l-.007.006c-17.749 12.87-40.51 25.85-67.653 38.581-26.159 12.281-48.913 34.887-60.286 59.267-10.468-7.1-17.015-10.314-21.243-11.771-3.997-37.083-1.666-88.587 28.829-133.283a7.5 7.5 0 0 0-12.39-8.453c-32.27 47.296-35.49 101.095-31.644 140.527h-8.488v-84.703a7.5 7.5 0 0 0-7.5-7.5 7.5 7.5 0 0 0-7.5 7.5v92.204a7.5 7.5 0 0 0 7.5 7.5h24.553c.274.007 5.904.371 26.737 15.522.079.06.159.118.24.175 4.414 3.216 9.49 7.076 15.352 11.747a7.069 7.069 0 0 1 2.662 4.953 7.07 7.07 0 0 1-1.755 5.342 7.094 7.094 0 0 1-8.301 1.776l-40.048-18.199a12.834 12.834 0 0 0-11.517.474 12.808 12.808 0 0 0-6.443 9.537c-.893 7.024-1.957 17.743-1.957 28.913 0 24.73 51.613 64.022 64.39 72.422 2.96 1.946 4.299 4.798 3.257 6.933-1.751 3.587-10.759 6.757-28.399.788-33.179-11.227-88.84-37.917-88.84-90.526V124.986a7.5 7.5 0 0 0-7.5-7.5 7.5 7.5 0 0 0-7.5 7.5v153.826c0 26.975 11.861 50.702 35.256 70.522 20.52 17.386 46.008 28.201 63.776 34.214 8.543 2.891 15.869 4.112 22.047 4.112 13.308-.001 21.293-5.669 24.641-12.53 4.379-8.975.807-19.929-8.496-26.046-9.033-5.939-23.828-17.547-36.52-30.086-15.565-15.381-21.111-25.48-21.111-29.802 0-8.91.735-17.567 1.473-24.012l37.286 16.943c8.923 4.053 19.277 1.84 25.76-5.515 4.048-4.592 5.981-10.479 5.445-16.576-.537-6.097-3.469-11.555-8.257-15.37a501.39 501.39 0 0 0-11.352-8.796c9.373-22.013 30.527-43.5 54.218-54.622 26.388-12.376 48.85-25.048 66.843-37.703 50.825 18.747 69.071 57.051 78.633 90.046-4.293 3.161-9.065 6.813-14.415 11.075-4.788 3.815-7.721 9.273-8.257 15.371-.537 6.097 1.397 11.983 5.445 16.576 6.481 7.354 16.834 9.567 25.76 5.515l37.284-16.943c.738 6.444 1.473 15.103 1.473 24.012 0 4.322-5.546 14.422-21.111 29.802-12.691 12.54-27.486 24.147-36.52 30.086-9.303 6.117-12.875 17.071-8.496 26.046 3.349 6.862 11.331 12.531 24.641 12.531 6.178 0 13.506-1.222 22.047-4.112 17.769-6.013 43.257-16.829 63.777-34.214 23.395-19.819 35.256-43.547 35.256-70.522V124.987a7.5 7.5 0 0 0-7.499-7.503zm-184.037 15.51c18.074-14.745 36.746-34.863 39.38-58.02 26.932 12.211 36.773 37.497 39.545 61.273l-2.908-2.048a7.501 7.501 0 0 0-8.639 12.264l15.642 11.019c.085.06.177.1.263.156.103.066.197.142.304.203 15.357 8.867 13.594 36.688 7.131 59.202-3.335 1.57-7.614 3.95-13.119 7.523-9.861-31.54-29.235-70.316-77.599-91.572z" fill="#787276" opacity="1" data-original="#000000"></path></g></svg>