<svg xmlns="http://www.w3.org/2000/svg" version="1.1" xmlns:xlink="http://www.w3.org/1999/xlink" width="512" height="512" x="0" y="0" viewBox="0 0 512 512" style="enable-background:new 0 0 512 512" xml:space="preserve" class=""><g><path d="M449.23 266.6V124.96c0-11.27 4.57-21.48 11.96-28.86 7.39-7.39 17.59-11.96 28.86-11.96 7.98 0 14.45 6.47 14.45 14.45v192.08c0 7.69-2.26 15.21-6.49 21.62l-9.42 14.27M384.87 504.5a98.161 98.161 0 0 1 15.8-44.78l68.63-103.95" style="stroke-width:15;stroke-linecap:round;stroke-linejoin:round;stroke-miterlimit:10;" fill="none" stroke="#787276" stroke-width="15" stroke-linecap="round" stroke-linejoin="round" stroke-miterlimit="10" data-original="#000000" opacity="1" class=""></path><path d="M274.016 504.5a89.271 89.271 0 0 0-8.726-35.498h0a94.442 94.442 0 0 1-9.289-40.846v0a94.442 94.442 0 0 1 27.945-67.064l115.996-115.018c11.258-11.163 29.404-11.183 40.687-.046h0c11.083 10.94 11.515 28.691.977 40.157l-81.446 88.626M7.5 196.93v93.74c0 7.69 2.26 15.21 6.49 21.62l65.05 98.52M7.5 161.93V98.59c0-7.98 6.47-14.45 14.45-14.45 11.27 0 21.47 4.57 28.86 11.96 7.39 7.38 11.96 17.59 11.96 28.86V266.6M98.33 440.03l13 19.69a98.161 98.161 0 0 1 15.8 44.78" style="stroke-width:15;stroke-linecap:round;stroke-linejoin:round;stroke-miterlimit:10;" fill="none" stroke="#787276" stroke-width="15" stroke-linecap="round" stroke-linejoin="round" stroke-miterlimit="10" data-original="#000000" opacity="1" class=""></path><path d="M237.984 504.5a89.271 89.271 0 0 1 8.726-35.498h0a94.442 94.442 0 0 0 9.289-40.846v0a94.442 94.442 0 0 0-27.945-67.064L112.058 246.075c-11.258-11.163-29.404-11.183-40.687-.046h0c-11.083 10.94-11.515 28.691-.977 40.157l81.446 88.626M448.704 126.828l-31.444-5.673h0c-7.819 20.958-37.462 20.958-45.281 0h0l-34.441 6.214a40.92 40.92 0 0 0-11.606 3.952M417.26 121.155l-2.466-20.142M371.979 121.156l2.598-21.214M383.56 103.856h0a25.093 25.093 0 0 0 22.176.011h0c15.794-7.771 26.456-23.158 28.199-40.697l1.088-10.951C437.401 28.288 418.62 7.512 394.598 7.5h0c-24.022-.012-42.781 20.744-40.379 44.677l1.099 10.952a51.098 51.098 0 0 0 28.242 40.727zM63.965 126.708l30.775-5.552h0c7.819 20.958 37.462 20.958 45.281 0h0l34.441 6.214a40.935 40.935 0 0 1 11.598 3.948M94.74 121.155l2.598-21.213M140.021 121.156l-2.664-21.752M128.44 103.856h0a25.093 25.093 0 0 1-22.176.011h0C90.469 96.096 79.807 80.709 78.065 63.17l-1.088-10.951C74.598 28.288 93.379 7.512 117.401 7.5h0c24.022-.012 42.781 20.744 40.379 44.677l-1.099 10.952a51.095 51.095 0 0 1-28.241 40.727z" style="stroke-width:15;stroke-linecap:round;stroke-linejoin:round;stroke-miterlimit:10;" fill="none" stroke="#787276" stroke-width="15" stroke-linecap="round" stroke-linejoin="round" stroke-miterlimit="10" data-original="#000000" opacity="1" class=""></path><path d="M346.79 212.85V167.7c0-19.83-14.2-36.81-33.71-40.33l-34.44-6.21c-3.91 10.48-13.28 15.71-22.64 15.71-9.36 0-18.73-5.23-22.64-15.71l-34.44 6.21c-19.51 3.52-33.71 20.5-33.71 40.33v123.595c0 9.92 8.042 17.962 17.962 17.962h0c9.92 0 17.962-8.042 17.962-17.963l-.001-101.523M346.79 297.69v-49.84M244.941 103.856h0a25.093 25.093 0 0 0 22.176.011h0c15.794-7.771 26.456-23.158 28.199-40.697l1.088-10.951C298.783 28.288 280.002 7.512 255.98 7.5h0c-24.022-.012-42.781 20.744-40.379 44.677L216.7 63.13a51.097 51.097 0 0 0 28.241 40.726zM256 297.685v130.472M278.641 121.155l-2.664-21.751M233.359 121.156l2.598-21.214" style="stroke-width:15;stroke-linecap:round;stroke-linejoin:round;stroke-miterlimit:10;" fill="none" stroke="#787276" stroke-width="15" stroke-linecap="round" stroke-linejoin="round" stroke-miterlimit="10" data-original="#000000" opacity="1" class=""></path><path d="M165.21 212.845v78.449c0 9.92 8.042 17.962 17.962 17.962h0c9.92 0 17.962-8.042 17.962-17.963l-.001-101.523M346.79 247.85l.001 43.445c0 9.92-8.042 17.962-17.962 17.962h0c-9.92 0-17.962-8.042-17.962-17.963l.001-101.523" style="stroke-width:15;stroke-linecap:round;stroke-linejoin:round;stroke-miterlimit:10;" fill="none" stroke="#787276" stroke-width="15" stroke-linecap="round" stroke-linejoin="round" stroke-miterlimit="10" data-original="#000000" opacity="1" class=""></path></g></svg>