<svg xmlns="http://www.w3.org/2000/svg" version="1.1" xmlns:xlink="http://www.w3.org/1999/xlink" width="512" height="512" x="0" y="0" viewBox="0 0 25 25" style="enable-background:new 0 0 512 512" xml:space="preserve" class=""><g><path d="M10.354 14.646a.5.5 0 0 0-.707 0L6.5 17.793V15a.5.5 0 0 0-1 0v4a.5.5 0 0 0 .5.5h4a.5.5 0 0 0 0-1H7.207l3.146-3.146a.5.5 0 0 0 .001-.708zM19.191 5.538A.524.524 0 0 0 19 5.5h-4a.5.5 0 0 0 0 1h2.793l-3.146 3.146a.5.5 0 0 0 .707.708L18.5 7.207V10a.5.5 0 0 0 1 0V6a.501.501 0 0 0-.309-.462z" fill="#787276" opacity="1" data-original="#000000"></path><path d="M20 2.5H5A2.503 2.503 0 0 0 2.5 5v15c0 1.379 1.122 2.5 2.5 2.5h15c1.378 0 2.5-1.121 2.5-2.5V5c0-1.379-1.122-2.5-2.5-2.5zM21.5 20c0 .827-.673 1.5-1.5 1.5H5c-.827 0-1.5-.673-1.5-1.5V5c0-.827.673-1.5 1.5-1.5h15c.827 0 1.5.673 1.5 1.5z" fill="#787276" opacity="1" data-original="#000000"></path></g></svg>