<svg xmlns="http://www.w3.org/2000/svg" version="1.1" xmlns:xlink="http://www.w3.org/1999/xlink" width="512" height="512" x="0" y="0" viewBox="0 0 64 64" style="enable-background:new 0 0 512 512" xml:space="preserve" class=""><g><path d="M63 6H1a1 1 0 0 0-1 1v50a1 1 0 0 0 1 1h62a1 1 0 0 0 1-1V7a1 1 0 0 0-1-1zM26 36c-.95 0-1.99-1.142-3.091-2.351C21.351 31.938 19.585 30 17 30c-1.776 0-3.231.873-4.514 1.642C11.322 32.34 10.224 33 9 33H5.684C7.756 28.071 9.877 20.089 9.99 8h44.021c.071 7.682.952 13.709 2.119 18.343-1.271.466-2.249 1.348-3.197 2.212C51.554 29.812 50.252 31 48 31c-2.375 0-3.291 1.549-4.027 2.793-.949 1.605-1.638 2.764-5.621 1.27-2.608-.978-5.947-.488-9.916 1.42A6.261 6.261 0 0 0 26 36zM4.77 35H9c1.777 0 3.231-.873 4.515-1.643C14.679 32.659 15.777 32 17 32c1.702 0 3.089 1.523 4.43 2.996C22.775 36.473 24.166 38 26 38c1.649 0 2.681.825 3.875 1.781C31.176 40.821 32.649 42 35 42c2.903 0 5.582 1.02 7.494 2H4.204a63.099 63.099 0 0 0-2.017-4.839c.554-.68 1.517-2.015 2.583-4.161zm54.325 11c-1.007 3.042-1.903 6.624-2.059 10H6.965c-.156-3.376-1.053-6.958-2.059-10zm.701-2h-13.46c-1.182-.871-5.813-4-11.336-4-1.649 0-2.681-.825-3.875-1.781-.199-.159-.404-.32-.613-.481 2.906-1.211 5.305-1.49 7.137-.802 5.134 1.924 6.734.093 8.046-2.125C46.398 33.621 46.82 33 48 33c3.027 0 4.756-1.576 6.28-2.967.811-.739 1.537-1.4 2.377-1.754 1.854 6.338 4.163 9.664 5.155 10.882A63.2 63.2 0 0 0 59.796 44zM62 8v27.866C59.775 32.088 56.154 23.569 56.005 8zM2 8h5.995C7.846 23.569 4.225 32.088 2 35.866zm0 48V43.847C3.274 47.15 4.76 51.807 4.974 56zm60 0h-2.974c.214-4.193 1.699-8.85 2.974-12.153z" fill="#787276" opacity="1" data-original="#000000" class=""></path><path d="M11 50h42a1 1 0 1 0 0-2H11a1 1 0 1 0 0 2zM49 52H15a1 1 0 1 0 0 2h34a1 1 0 1 0 0-2zM29 19c2.206 0 4-1.794 4-4s-1.794-4-4-4-4 1.794-4 4 1.794 4 4 4zm0-6c1.102 0 2 .897 2 2s-.898 2-2 2c-1.103 0-2-.897-2-2s.897-2 2-2zM34 20h10a1 1 0 1 0 0-2H34a1 1 0 1 0 0 2zM40.29 21.29c-.181.19-.29.45-.29.71s.109.52.29.71c.189.18.439.29.71.29.26 0 .519-.11.71-.29.18-.19.29-.45.29-.71s-.11-.52-.29-.71c-.37-.37-1.05-.37-1.42 0zM47 20c.26 0 .519-.11.71-.29.18-.19.29-.45.29-.71s-.11-.52-.29-.71c-.38-.37-1.04-.37-1.42 0-.181.19-.29.45-.29.71s.109.52.29.71c.189.18.45.29.71.29zM39 22a1 1 0 0 0-1-1h-8c-2.426 0-3.508-.484-4.654-.997C24.243 19.51 23.102 19 21 19a1 1 0 1 0 0 2c1.675 0 2.534.384 3.529.83C25.757 22.378 27.147 23 30 23h8a1 1 0 0 0 1-1z" fill="#787276" opacity="1" data-original="#000000" class=""></path></g></svg>