<svg xmlns="http://www.w3.org/2000/svg" version="1.1" xmlns:xlink="http://www.w3.org/1999/xlink" width="512" height="512" x="0" y="0" viewBox="0 0 60 60" style="enable-background:new 0 0 512 512" xml:space="preserve" class=""><g><path d="M12.19 51.02c4.73 0 8.74-.45 12.27-.85 7.01-.79 12.07-1.35 18.26 1.73.14.07.29.1.45.1.12 0 .25-.02.37-.07.26-.1.47-.31.57-.58l10.83-28.81c.09-.25.08-.53-.03-.77s-.32-.43-.57-.52c-7.27-2.56-11.95-2.08-16.46-1.61-2.83.29-5.74.59-9.37.15l.92-2.45c.22-.7.33-1.43.33-2.17 0-3.97-3.23-7.19-7.2-7.19-2.95 0-5.57 1.77-6.69 4.54L5.64 40.88c-.41.9-.64 1.9-.64 2.95 0 4.05 3.87 7.19 7.19 7.19zm25.89-29.38c4.28-.44 8.34-.86 14.63 1.18L42.62 49.64c-6.28-2.81-11.65-2.21-18.38-1.45-3.48.39-7.43.83-12.05.83-2.35 0-5.19-2.31-5.19-5.19 0-2.86 2.33-5.19 5.19-5.19 1.66 0 3.31.74 4.31 1.92.54.63 1.12 1.68.9 3.09l-.38 1.01c-.41.69-1.1 1.28-1.94 1.61-1.12.43-2.5.22-3.42-.54-.46-.37-.77-.83-.88-1.3-.11-.45-.01-.94.24-1.24.23-.27.63-.4.92-.29.22.08.4.38.34.58-.16.53.14 1.09.66 1.25.53.16 1.09-.14 1.25-.66.37-1.2-.35-2.59-1.56-3.04-1.08-.4-2.37-.03-3.14.88-.67.8-.92 1.92-.65 3 .21.89.77 1.73 1.56 2.38 1.49 1.22 3.62 1.55 5.42.85s3.11-2.17 3.49-3.86l8.47-22.55c4.06.54 7.23.23 10.3-.09zm-20.34-8.4a5.17 5.17 0 0 1 4.82-3.25c2.86 0 5.2 2.33 5.2 5.19 0 .53-.08 1.06-.22 1.51L18.7 40.21c-.19-.33-.4-.65-.66-.95-1.38-1.62-3.61-2.63-5.84-2.63-1.14 0-2.21.27-3.17.74z" fill="#787276" opacity="1" data-original="#000000"></path></g></svg>